<svg height="78" viewBox="0 0 110 78" width="110" xmlns="http://www.w3.org/2000/svg"><g fill="none" fill-rule="evenodd"><rect fill="#fff" height="78" rx="2" width="110"/><path d="m69.8325893 30.2276786c-.8225488 1.203131-1.8169585 2.2282323-2.9832589 3.0753348.0122768.1718759.0184151.4296858.0184151.7734375 0 1.5959901-.2332566 3.1888871-.6997767 4.7787388-.4665202 1.5898517-1.1754975 3.1152271-2.1269532 4.5761719-.9514556 1.4609448-2.0839778 2.7530636-3.3976004 3.8763951-1.3136227 1.1233315-2.8973122 2.0195279-4.7511161 2.6886161-1.8538039.6690881-3.836485 1.0036272-5.9481027 1.0036272-3.3270255 0-6.3716379-.8900581-9.1339285-2.6702009.4296896.0491074.9084795.0736607 1.4363839.0736607 2.7622906 0 5.2237615-.8470897 7.3844866-2.5412946-1.289069-.0245537-2.4430753-.4204761-3.4620536-1.187779-1.0189783-.767303-1.7187481-1.7463669-2.0993303-2.937221.4051359.0613842.7795741.0920759 1.1233259.0920759.5279044 0 1.0496626-.0675217 1.5652901-.202567-1.3750068-.2823675-2.5136673-.9667914-3.4160156-2.0532924s-1.3535156-2.3479281-1.3535156-3.7843192v-.0736607c.8348256.4665202 1.731022.7181918 2.6886161.7550223-.810272-.5401813-1.4547968-1.2460894-1.9335938-2.1177455-.478797-.8716562-.718192-1.8169592-.718192-2.8359375 0-1.0803626.2700866-2.0809106.8102679-3.0016741 1.4854985 1.8292502 3.2932371 3.2932422 5.4232701 4.3920201 2.130033 1.0987778 4.4104231 1.7095418 6.8412388 1.8323102-.0982147-.4665202-.1473214-.9207567-.1473214-1.3627232 0-1.6450975.5800723-3.0477062 1.7402344-4.2078683 1.160162-1.160162 2.5627708-1.7402344 4.2078683-1.7402344 1.7187586 0 3.1674048.6261098 4.3459821 1.8783482 1.3381764-.2578137 2.5965343-.7366036 3.7751116-1.4363839-.4542433 1.4118374-1.3258864 2.5044604-2.6149553 3.2779018 1.1417468-.1227685 2.2834764-.429685 3.4252232-.9207589z" fill="#000"/></g></svg>