<svg xmlns="http://www.w3.org/2000/svg" width="135.793" height="36.699" viewBox="0 0 135.793 36.699"><g transform="translate(-38.175 -145)"><path d="M54.9,24.772l5.263,3.044,5.277,3.038c2.944,1.7,2.824,1.509,2.824,4.912V47.929c0,3.4.11,3.207-2.842,4.905l-5.259,3.039L54.9,58.92c-2.951,1.7-2.724,1.7-5.668,0l-5.26-3.043-5.277-3.039c-2.946-1.7-2.823-1.512-2.823-4.915V35.755c0-3.4-.111-3.2,2.842-4.905l5.258-3.035,5.269-3.047c2.95-1.7,2.724-1.7,5.665,0M53.679,54.266c-1.621.942-1.608.928-3.46-.144-1.311-.755-2.619-1.51-3.934-2.264l-3.823-2.21c-1.981-1.142-1.962-.985-1.962-3.268V37.429c0-2.286-.119-2.188,1.849-3.332.485-.276.967-.555,1.447-.833.623-.359.679.086.862.576v9.7c0,1.8.01,2.066,1.209,2.73.058.027.116.064.18.1l2.82,1.531c.739.4.939,0,.939-.632V44.36c0-.7.525-.623.932-.387l2.952,1.714a1.282,1.282,0,0,1,.635,1.243v6.089C54.328,53.741,54.281,53.914,53.679,54.266Zm-3.22-24.844c1.621-.943,1.608-.929,3.458.143,1.312.755,2.62,1.509,3.936,2.264,1.276.739,2.545,1.473,3.822,2.209,1.98,1.144,1.961.988,1.961,3.269v8.952c0,2.286.119,2.188-1.849,3.331-.485.277-.967.555-1.447.833-.622.36-.678-.085-.861-.576v-9.7c0-1.8-.01-2.066-1.21-2.729-.058-.029-.116-.064-.18-.1l-2.82-1.53c-.738-.4-.939,0-.939.631v2.906c0,.7-.524.622-.933.386L50.444,38a1.28,1.28,0,0,1-.635-1.242V30.669C49.81,29.947,49.857,29.775,50.459,29.422Z" transform="translate(2.306 121.505)" fill="#fff" fill-rule="evenodd"/><path d="M3.346,0V-4.172h4V0H9.618V-10.36H7.35v4.088h-4V-10.36H1.078V0ZM12.4-3.892c0,2.478,1.666,4.06,4.256,4.06s4.284-1.6,4.284-4.06V-10.36H18.676v6.314A1.835,1.835,0,0,1,16.66-2.03a1.809,1.809,0,0,1-1.988-2.016V-10.36H12.4ZM23.73,0h4.312c2.24,0,3.472-1.022,3.472-2.856a2.218,2.218,0,0,0-1.568-2.31A2.356,2.356,0,0,0,31.388-7.49c0-1.778-1.26-2.87-3.346-2.87H23.73ZM27.8-8.372c.826,0,1.26.378,1.26,1.106s-.448,1.148-1.26,1.148H26V-8.372Zm.112,4.158c.826,0,1.274.378,1.274,1.078,0,.77-.434,1.148-1.274,1.148H26V-4.214ZM38.052-2.8H53.676V-4.7H38.052ZM2.492,16l.742-2.184H6.58L7.308,16H9.716L6.034,5.64H3.822L.126,16ZM4.634,9.7a8.3,8.3,0,0,0,.28-1.008A8.8,8.8,0,0,0,5.194,9.7l.742,2.212H3.892ZM13.888,16V12.374h1.75L17.192,16H19.67l-1.82-4.116A3,3,0,0,0,19.572,9c0-2.142-1.428-3.36-3.948-3.36h-4V16Zm0-8.344h1.736c1.008,0,1.554.476,1.554,1.344s-.574,1.386-1.568,1.386H13.888Zm12.544,8.512a4.624,4.624,0,0,0,4.886-3.836H28.966a2.382,2.382,0,0,1-2.492,1.652c-1.666,0-2.7-1.218-2.7-3.164,0-1.974,1.022-3.164,2.7-3.164A2.322,2.322,0,0,1,28.91,9.28H31.3c-.322-2.324-2.184-3.808-4.774-3.808-3.094,0-5.152,2.128-5.152,5.362C21.378,14.11,23.324,16.168,26.432,16.168ZM35.8,16V11.828h4V16H42.07V5.64H39.8V9.728h-4V5.64H33.53V16Zm11.4-10.36H44.926V16h2.268Zm2.058,2.1h2.94V16H54.46V7.74H57.4V5.64H49.252ZM66.038,16V13.9H61.726V11.758h3.822V9.77H61.726V7.74h4.312V5.64h-6.58V16Zm7.042.168a4.624,4.624,0,0,0,4.886-3.836H75.614a2.382,2.382,0,0,1-2.492,1.652c-1.666,0-2.7-1.218-2.7-3.164,0-1.974,1.022-3.164,2.7-3.164A2.322,2.322,0,0,1,75.558,9.28h2.394c-.322-2.324-2.184-3.808-4.774-3.808-3.094,0-5.152,2.128-5.152,5.362C68.026,14.11,69.972,16.168,73.08,16.168ZM78.82,7.74h2.94V16h2.268V7.74h2.94V5.64H78.82Z" transform="translate(87 160)" fill="#fff"/></g></svg>