<svg xmlns="http://www.w3.org/2000/svg" width="132.996" height="26.676" viewBox="0 0 132.996 26.676"><path d="M12.552-8.4,10.716-2.628l-2-5.772H6.456l-2,5.772L2.616-8.4H.108L3.18,0H5.592L7.56-5.844,9.516,0h2.436l3.06-8.4ZM17.04.156a1.817,1.817,0,0,0,.6-.114,1.157,1.157,0,0,0,.546-.408,1.077,1.077,0,0,0,.222-.666,1.106,1.106,0,0,0-.384-.852,1.409,1.409,0,0,0-.984-.348,1.431,1.431,0,0,0-.99.348,1.1,1.1,0,0,0-.39.852,1.077,1.077,0,0,0,.222.666,1.157,1.157,0,0,0,.546.408A1.847,1.847,0,0,0,17.04.156ZM25.548-8.4H20.856V0h4.692A7.714,7.714,0,0,0,27.72-.288a4.932,4.932,0,0,0,1.674-.828,3.627,3.627,0,0,0,1.062-1.332A4.07,4.07,0,0,0,30.828-4.2a4.07,4.07,0,0,0-.372-1.752,3.627,3.627,0,0,0-1.062-1.332,4.932,4.932,0,0,0-1.674-.828A7.714,7.714,0,0,0,25.548-8.4Zm-.192,6.456H23.3V-6.456h2.052a4.328,4.328,0,0,1,1.422.2,2.542,2.542,0,0,1,.882.48,2.2,2.2,0,0,1,.486.654,2.064,2.064,0,0,1,.186.918,2.156,2.156,0,0,1-.21.966,1.948,1.948,0,0,1-.6.714,2.726,2.726,0,0,1-.942.432A4.848,4.848,0,0,1,25.356-1.944Zm22.26-.768v-1.86H37.092v1.86ZM8.712,18h2.6L6.972,9.6H4.3L-.048,18H2.52l.792-1.608H7.92Zm-4.56-3.348,1.464-2.976,1.452,2.976ZM23.136,18l-2.472-2.856a3.335,3.335,0,0,0,1.614-.978,2.483,2.483,0,0,0,.594-1.7,2.622,2.622,0,0,0-.288-1.242,2.512,2.512,0,0,0-.81-.906,3.8,3.8,0,0,0-1.218-.54,5.976,5.976,0,0,0-1.5-.18H13.164V18H15.6V15.348h2.472L20.292,18Zm-7.548-4.428V11.46h3.288q1.512,0,1.512,1.056t-1.512,1.056Zm14.556,2.712a3.164,3.164,0,0,1-2.1-.654,2.257,2.257,0,0,1-.78-1.83,2.257,2.257,0,0,1,.78-1.83,3.164,3.164,0,0,1,2.1-.654,2.8,2.8,0,0,1,2.532,1.272l2.112-1.08a3.889,3.889,0,0,0-.912-.99,5.428,5.428,0,0,0-1.182-.7,5.764,5.764,0,0,0-1.284-.384,7.181,7.181,0,0,0-1.23-.114,7.715,7.715,0,0,0-2.208.3,4.84,4.84,0,0,0-1.716.882,3.933,3.933,0,0,0-1.092,1.422A4.451,4.451,0,0,0,24.78,13.8a4.511,4.511,0,0,0,.378,1.872,3.874,3.874,0,0,0,1.086,1.422,4.863,4.863,0,0,0,1.692.882,7.337,7.337,0,0,0,2.148.3,7.064,7.064,0,0,0,1.56-.168,6.226,6.226,0,0,0,1.35-.462,4.961,4.961,0,0,0,1.074-.7,3.727,3.727,0,0,0,.756-.87L32.724,15A2.868,2.868,0,0,1,30.144,16.284ZM44.448,9.6v3.132h-5.04V9.6H36.96V18h2.448V14.748h5.04V18H46.9V9.6ZM52.236,18V9.6H49.788V18Zm11.52-8.4H54.348v1.956h3.468V18h2.448V11.556h3.492Zm4.5,6.528V14.64h5.292V12.852H68.256v-1.38h6.42V9.6H65.844V18h8.964V16.128Zm13.644.156a3.164,3.164,0,0,1-2.1-.654,2.257,2.257,0,0,1-.78-1.83,2.257,2.257,0,0,1,.78-1.83,3.164,3.164,0,0,1,2.1-.654,2.8,2.8,0,0,1,2.532,1.272l2.112-1.08a3.889,3.889,0,0,0-.912-.99,5.428,5.428,0,0,0-1.182-.7,5.764,5.764,0,0,0-1.284-.384,7.181,7.181,0,0,0-1.23-.114,7.715,7.715,0,0,0-2.208.3,4.84,4.84,0,0,0-1.716.882,3.933,3.933,0,0,0-1.092,1.422,4.451,4.451,0,0,0-.384,1.872,4.511,4.511,0,0,0,.378,1.872A3.874,3.874,0,0,0,78,17.094a4.863,4.863,0,0,0,1.692.882,7.337,7.337,0,0,0,2.148.3,7.064,7.064,0,0,0,1.56-.168,6.226,6.226,0,0,0,1.35-.462,4.961,4.961,0,0,0,1.074-.7,3.727,3.727,0,0,0,.756-.87L84.48,15A2.868,2.868,0,0,1,81.9,16.284ZM97.332,9.6H87.924v1.956h3.468V18H93.84V11.556h3.492Zm9.252,0v4.248a2.45,2.45,0,0,1-.618,1.764,2.849,2.849,0,0,1-3.618,0,2.436,2.436,0,0,1-.624-1.764V9.6H99.276v4.44a4.508,4.508,0,0,0,.324,1.734,3.608,3.608,0,0,0,.954,1.344,4.328,4.328,0,0,0,1.548.858,7.209,7.209,0,0,0,4.116,0,4.267,4.267,0,0,0,1.542-.858,3.639,3.639,0,0,0,.948-1.344,4.508,4.508,0,0,0,.324-1.734V9.6ZM121.752,18l-2.472-2.856a3.335,3.335,0,0,0,1.614-.978,2.483,2.483,0,0,0,.594-1.7,2.622,2.622,0,0,0-.288-1.242,2.512,2.512,0,0,0-.81-.906,3.8,3.8,0,0,0-1.218-.54,5.976,5.976,0,0,0-1.5-.18H111.78V18h2.436V15.348h2.472L118.908,18ZM114.2,13.572V11.46h3.288q1.512,0,1.512,1.056t-1.512,1.056ZM126.4,16.128V14.64h5.292V12.852H126.4v-1.38h6.42V9.6h-8.832V18h8.964V16.128Z" transform="translate(0.048 8.4)"></path></svg>