<svg class="lqd-custom-shape" viewBox="0 0 1440 150" fill="none" xmlns="http://www.w3.org/2000/svg" preserveAspectRatio="none">
    <path class="elementor-shape-fill" opacity="0.18" d="M0 97.8794H1439.96L1440 67.2669C1440 67.2669 1245.81 74.8599 1058.09 42.8249C832.056 4.25818 655.629 41.2142 630.846 45.3966C570.573 55.5779 479.478 87.5456 177.446 55.0986C64.351 41.2473 0 47.3835 0 47.3835V97.8794Z"/>
    <path class="elementor-shape-fill" d="M1440 150H0.039L0 86.638C0 86.638 184.667 102.385 363.176 36.0429C578.117 -43.8134 745.921 32.6842 769.451 41.382C826.745 62.4655 913.412 128.627 1200.63 61.4574C1308.2 32.7529 1440 36.0378 1440 36.0378V150Z"/>
</svg>
