<svg class="lqd-custom-shape" viewBox="0 0 1921 282" xmlns="http://www.w3.org/2000/svg" preserveAspectRatio="none">
    <path class="elementor-shape-fill" fill-opacity="0.45" d="M1920 281.399H0.00218743V137.689C15.7702 144.989 31.8632 151.879 47.8362 158.181C63.5362 164.381 79.5678 170.173 95.4758 175.409C111.108 180.555 127.076 185.309 142.934 189.537C158.503 193.689 174.412 197.455 190.218 200.729C205.718 203.94 221.572 206.773 237.34 209.149C252.782 211.475 268.586 213.43 284.311 214.959C299.688 216.459 315.444 217.587 331.141 218.324C346.448 219.043 362.141 219.408 377.796 219.408H377.842C402.314 219.408 427.642 218.508 453.122 216.75C477.41 215.07 502.644 212.545 528.122 209.245C552.21 206.125 577.364 202.201 602.885 197.584C626.738 193.268 651.824 188.184 677.449 182.46C701.313 177.133 725.649 171.28 751.854 164.566C775.189 158.587 799.488 152.054 826.141 144.594C875.622 130.744 925.88 115.723 974.482 101.194L974.519 101.183L984.425 98.222C1026.24 86.231 1067.22 74.543 1109.01 63.39C1155.46 50.99 1196.51 41.001 1234.5 32.844C1256.15 28.195 1277.41 24.02 1297.68 20.434C1319.32 16.607 1340.69 13.3 1361.21 10.603C1382.88 7.75497 1404.39 5.48497 1425.13 3.85297C1446.87 2.14397 1468.53 1.07901 1489.49 0.687012C1501.99 0.231012 1514.81 0 1527.6 0C1543.49 0 1559.83 0.357012 1576.18 1.06201C1592.12 1.74901 1608.54 2.78801 1624.96 4.14801C1656.47 6.75801 1689.45 10.675 1723 15.79C1754.5 20.59 1787.62 26.626 1821.44 33.719C1852.75 40.286 1920 56.728 1920 56.728L1920 281.399Z"/>
    <path class="elementor-shape-fill" fill-opacity="0.36" d="M1920 281.395H0.000999987V128.949C18.208 140.344 36.9009 151.082 55.5479 160.864C73.7959 170.435 92.5351 179.364 111.248 187.412C129.536 195.274 148.323 202.512 167.087 208.934C185.4 215.198 204.231 220.864 223.058 225.774C241.392 230.556 260.265 234.761 279.151 238.274C297.503 241.688 316.413 244.549 335.358 246.774C353.716 248.934 372.658 250.566 391.67 251.625C410.025 252.647 429.003 253.166 448.076 253.165C467.869 253.165 488.412 252.605 509.134 251.503C528.888 250.452 549.461 248.873 570.28 246.809C608.707 242.999 648.78 237.519 692.788 230.056C729.459 223.837 769.6 216.09 815.503 206.371C856.423 197.707 898.047 188.311 938.303 179.225L938.325 179.22L939.47 178.961L947.979 177.041C1022.66 161.094 1090.06 147.018 1158.73 136.252C1196.58 130.317 1231.23 125.952 1264.65 122.922C1282.69 121.284 1300.55 120.031 1317.75 119.198C1335.75 118.325 1353.64 117.882 1370.92 117.882C1391.87 117.882 1412.68 118.533 1432.76 119.818C1452.69 120.718 1473.22 122.318 1493.79 124.564C1513.72 126.743 1534.28 129.6 1554.9 133.055C1574.8 136.391 1595.36 140.385 1616 144.926C1635.86 149.294 1656.4 154.303 1677.07 159.815C1696.85 165.09 1717.37 170.992 1738.05 177.357C1757.73 183.412 1778.2 190.084 1798.9 197.188C1836.95 210.246 1920.01 242.264 1920.01 242.264V281.395H1920Z"/>
    <path class="elementor-shape-fill" d="M1920 281.397H388.66C410.968 280.907 434.069 279.597 457.322 277.509C479.476 275.517 502.498 272.748 525.747 269.278C547.726 265.998 570.68 261.978 593.97 257.325C615.738 252.978 638.635 247.912 662.024 242.27C683.812 237.014 706.024 231.278 729.944 224.733C751.244 218.903 773.431 212.558 797.763 205.333C842.943 191.92 888.833 177.442 933.213 163.441L933.234 163.434L937.796 161.995L942.601 160.479C982.201 148.491 1021.01 136.808 1060.59 125.658C1104.57 113.266 1143.44 103.278 1179.43 95.1219C1199.93 90.4739 1220.06 86.3009 1239.26 82.7159C1259.76 78.8899 1280 75.5829 1299.43 72.8879C1319.95 70.0419 1340.31 67.771 1359.96 66.14C1380.55 64.431 1401.06 63.3669 1420.91 62.9749C1432.75 62.5189 1444.89 62.288 1456.99 62.288C1475.54 62.288 1494.69 62.8309 1513.9 63.9019C1532.52 64.9399 1551.76 66.5019 1571.09 68.5529C1589.76 70.5329 1609.08 73.0239 1628.49 75.9529C1647.19 78.7779 1666.56 82.0999 1686.06 85.8259C1704.75 89.3979 1724.15 93.455 1743.72 97.882C1762.38 102.102 1781.79 106.797 1801.42 111.837C1837.7 121.15 1920 145.395 1920 145.395C1920 145.395 1920 184.434 1920 281.389L1920 281.397ZM347.691 281.397H0.00193745V194.803C14.5139 202.134 29.3249 209.091 44.0239 215.48C58.4769 221.762 73.2241 227.671 87.8691 233.042C102.261 238.322 116.957 243.233 131.549 247.642C145.882 251.97 160.525 255.934 175.07 259.424C189.344 262.849 203.938 265.916 218.444 268.541C232.664 271.113 247.211 273.335 261.681 275.141C275.848 276.911 290.351 278.341 304.787 279.377C318.876 280.393 333.311 281.072 347.687 281.395L347.691 281.397Z"/>
</svg>