<svg class="lqd-custom-shape" xmlns="http://www.w3.org/2000/svg" viewBox="0 0 1440 32" preserveAspectRatio="none">
    <path class="elementor-shape-fill" d="M1415.788,8.243 C1414.85832,8.4679854 1413.88421,8.4281481 1412.976,8.128 C1411.44,7.776 1409.913,7.428 1408.33,9.415 C1406.73,10.623 1405.172,10.544 1403.597,10.472 C1402.68536,10.3824791 1401.76573,10.4188199 1400.864,10.58 C1399.635,9.911 1398.399,9.048 1397.108,9.89 C1396.391,11.58 1395.714,11.213 1395.037,10.846 C1394.454,10.53 1393.864,10.213 1393.237,11.22 C1390.67,10.314 1388.244,11.155 1385.992,11.27 C1383.716,12.456 1381.613,12.708 1379.676,11.191 C1377.739,9.674 1375.876,10.407 1374.076,11.759 C1372.399,8.307 1370.682,10.63 1369.076,10.731 C1368.163,12.241 1367.32,11.795 1366.485,11.349 C1365.792,10.982 1365.107,10.608 1364.406,11.371 C1363.5557,11.2641116 1362.69508,11.2688181 1361.846,11.385 C1361.25269,11.455217 1360.6554,11.4862843 1360.058,11.478 C1358.034,11.399 1357.412,9.522 1356.538,13.218 C1352.12,11.801 1327.186,4.007 1325.674,5.035 C1324.174,5.459 1306.111,3.467 1304.111,3.302 C1303.08157,3.79409931 1301.88925,3.81526043 1300.843,3.36 C1300.1391,3.07695231 1299.37284,2.98518042 1298.622,3.094 C1297.0509,2.40157365 1295.28095,2.30697745 1293.645,2.828 C1292.54641,3.19304431 1291.36575,3.23297825 1290.245,2.943 C1289.09933,2.41883216 1288.01648,1.76704077 1287.017,1 C1285.977,1.978 1285.032,1.367 1284.087,2.51 C1282.187,4.466 1267.454,5.552 1265.611,4.998 C1263.752,5.53 1253.294,12.764 1250.963,12.298 C1249.837,10.069 1225.447,8.149 1224.053,8.228 C1222.691,7.056 1221.202,6.035 1219.485,8.465 C1217.12699,8.49815884 1214.7806,8.80215252 1212.492,9.371 C1211.35,9.723 1211.2,10.071 1211.374,10.263 C1211.658,13.269 1213.335,11.392 1211.012,10.982 C1210.689,11.126 1210.303,10.853 1209.831,10.582 C1209.02921,9.96377523 1207.89884,10.0123164 1207.153,10.697 C1206.34028,10.5496435 1205.50553,10.5765708 1204.704,10.776 C1202.93542,11.2063029 1201.06944,10.9493328 1199.483,10.057 C1197.262,10.165 1195.364,11.502 1193.828,10.388 C1192.237,11.129 1191.009,9.101 1189.985,9.036 C1187.851,12.2 1186.772,10.836 1186.221,7.763 C1185.536,6.713 1185.481,6.756 1185.37,6.799 C1185.291,6.835 1185.181,6.864 1184.77,6.468 C1184.479,7.784 1184.124,7.18 1183.57,6.576 C1183.07,6.03 1182.42,5.476 1181.53,6.396 C1180.971,4.066 1180.246,4.677 1179.404,5.289 C1179.04318,5.61944872 1178.57777,5.81269138 1178.089,5.835 C1176.679,5.957 1174.955,6.914 1172.907,7.82 C1172.09523,8.19913972 1171.17097,8.26085158 1170.316,7.993 C1169.253,7.777 1168.229,7.569 1167.216,8.762 C1165.468,8.999 1163.798,11.947 1162.357,9.503 C1160.869,9.203 1159.53,7.475 1158.215,8.633 C1157.81081,9.1373972 1157.13536,9.33688054 1156.522,9.133 C1155.876,9.033 1155.262,8.924 1154.64,10.104 C1154.065,11.197 1150.498,10.615 1147.24,10.032 C1145.64869,9.69131803 1144.03537,9.46308719 1142.412,9.349 C1139.15133,9.39966667 1135.89367,9.45233333 1132.639,9.507 C1130.599,9.536 1126.539,9.212 1121.881,8.889 C1112.627,8.249 1101.058,7.609 1098.467,9.745 C1096.593,11.291 1096.412,10.27 1096.278,9.932 C1096.144,9.817 1096.105,8.472 1094.506,10.378 C1092.955,9.918 1089.978,6.322 1083.806,10.105 C1082.07174,8.9615439 1080.04704,8.33706411 1077.97,8.305 C1075.96909,8.37769635 1074.04679,9.10250849 1072.496,10.369 C1068.976,12.159 1065.786,11.347 1062.88,8.869 C1061.6508,8.97817426 1060.42006,8.6771693 1059.38,8.013 C1057.773,7.229 1056.238,6.438 1054.726,7.984 C1049.166,4.856 1025.398,6.014 1021.169,8.991 C1020.153,9.703 1019.137,11.723 1018.2,10.868 C1017.263,10.235 1016.31,11.436 1015.4,12.177 C1014.518,11.444 1013.644,11.882 1012.84,10.638 C1012.04,11.472 1011.856,10.667 1012.068,9.869 C1012.312,8.969 1013.06,8.069 1014.005,9.509 C1014.94536,9.21192283 1015.94686,9.16470857 1016.911,9.372 C1018.06926,9.65437281 1019.29036,9.51246712 1020.353,8.972 C1022.18,7.778 1023.07,8.26 1021.282,9.403 C1020.361,11.057 1018.801,11.733 1016.407,9.669 C1014.93358,9.73576989 1013.46094,9.52093224 1012.068,9.036 C1010.383,8.597 1008.461,7.965 1006.224,8.856 C1003.279,8.173 1000.955,9.704 999.191,9.971 C997.88743,9.8607981 996.613378,9.52231449 995.427,8.971 C995.028245,8.82720588 994.583812,8.89494337 994.246,9.151 C993.946,9.41 994.12,9.676 994.569,8.669 C995.026,6.728 995.669,7.36 996.333,7.993 C996.774,8.41 997.223,8.834 997.64,8.493 C997.792547,8.6517684 998.01012,8.73078077 998.228998,8.70689609 C998.447875,8.68301142 998.643287,8.55893274 998.758,8.371 C999.002,8.071 999.034,7.771 998.679,8.364 C998.041,7.156 996.033,8.501 991.725,8.522 C988.089362,8.39210889 984.493155,7.72314897 981.054,6.537 C975.84,4.984 971.254,3.423 967.941,5.703 C965.878,7.127 963.964,6.314 962.16,5.473 C960.371348,6.15442802 958.422774,6.29934603 956.553,5.89 C955.193881,5.59160822 953.784178,5.61145836 952.434,5.948 C951.667058,6.3978646 950.770151,6.57414349 949.89,6.448 C949.120515,6.31890583 948.330067,6.46024644 947.653,6.848 C946.818,7.696 946.038,7.265 945.298,6.841 C944.715,6.496 944.148,6.158 943.589,6.453 C941.1,6.553 908.52,4.698 906.803,2.534 C905.078,0.485 912.875,8.869 911.623,9.07 C909.15,7.891 907.488,8.063 905.811,8.876 C902.488,8.761 902.503,8.107 901.936,8.376 C901.652,8.901 901.243,8.585 900.236,6.916 C898.423653,6.42318619 896.499116,6.54450267 894.763,7.261 C891.999,6.815 890.487,6.427 889.62,6.42 C888.72,7.901 888.573,5.047 888.431,5.011 C888.297,4.86 888.231,5.061 887.667,5.263 C886.380612,5.61880841 885.033685,5.69956267 883.714,5.5 C882.214,6.895 880.863,6.593 879.564,6.737 C878.903,7.337 875.918,5.63 872.957,3.918 C870.027,2.235 867.129,0.546 866.499,1.085 C865.543851,2.18758653 863.892468,2.3489008 862.742,1.452 C861.411,3.242 855.568,6.112 854.055,7.967 C852.555,8.945 850.936,10.067 849.18,8.729 C848.232908,8.98358088 847.232651,8.9610213 846.298,8.664 C845.291736,8.38471761 844.233229,8.35042842 843.211,8.564 C836.572,8.111 836.044,6.939 835.769,6.996 C835.493,6.737 835.509,5.939 829.949,6.809 C826.822,5.22 827.256,5.687 828.728,6.155 C830.005306,6.65441112 831.412345,6.71526556 832.728,6.328 C833.140211,6.34763214 833.54883,6.24312607 833.901,6.028 C834.301,5.755 834.177,5.489 833.082,6.057 C831.342,6.474 827.191,6.273 818.875,6.891 C816.38616,7.61559321 813.773672,7.81380312 811.204,7.473 C809.251,7.308 807.558,7.149 806.085,7.782 C802.985,7.12 800.879,7.94 799.399,8.034 C796.43,8.897 795.942,8.717 794.666,8.58 C794.296,9.011 787.247,9.004 779.9,9.004 C772.607,9.004 765.015,9.004 763.346,9.414 C761.610951,9.97110096 759.775005,10.1417596 757.967,9.914 C756.227,9.547 740.184,9.964 737.231,14.624 C732.592,12.711 695.405,13.373 696.696,14.336 C694.782,12.905 693.302,14.674 692.196,14.904 C691.149,15.357 690.456,13.272 689.951,11.186 C689.376,8.806 689.045,6.426 688.722,7.828 C688.108,8.813 690.541,8.389 691.722,7.965 C692.746,7.598 692.832,7.232 689.233,7.765 C687.28,8.599 685.996,10.828 685.256,10.023 C684.5,10.339 684.193,13.023 684.279,10.152 C684.318,11.852 685.563,10.109 686.413,9.109 C685.736,9.909 677.207,9.792 668.772,9.684 C662.732,9.598 656.746,9.519 653.722,9.77 C652.58,8.008 647.697,7.879 646.169,9.57 C645.169,8.592 645.869,7.111 647.594,6.564 C633.426,7.064 633.552,8.923 619.376,9.426 C612.514738,9.63305486 605.647238,9.41463611 598.813,8.772 C593.613,8.11 594.592,8.118 596.08,8.118 C597.057,8.118 598.246,8.118 598.088,7.938 C599.317,9.347 599.947,8.866 597.655,7.305 C596.537,5.054 594.607,7.118 591.678,7.593 C591.040067,7.87146094 590.317505,7.88441525 589.67,7.629 C588.577023,7.21051493 587.341003,7.45367903 586.488,8.255 C585.554933,8.18572395 584.617398,8.20514433 583.688,8.313 C582.312204,8.47324077 580.920944,8.44430525 579.553,8.227 C576.053,8.083 572.843,7.803 569.898,7.673 C567.193584,7.48551633 564.47668,7.60123629 561.798,8.018 C559.463704,8.85001966 556.931975,8.95462214 554.537,8.318 C552.765,7.994 551.151,7.671 549.662,8.167 C530.737,11.885 514.041,5.167 496.117,4.421 C495.597,4.399 485.501,7.139 482.847,7.348 C480.431753,7.41846995 478.024382,7.04041093 475.747,6.233 C472.361,5.255 469.069,4.27 465.178,6.168 C462.17,5.974 460.201,6.283 458.862,5.14 C456.2,2.451 455.917,4.809 454.688,4.91 C454.088,3.587 453.231,3.853 451.68,4.5 C450.18,2.228 447.98,1.8 444.663,1.329 C441.738005,1.97370864 438.731989,2.16995108 435.748,1.911 C434.425,1.724 433.015,3.364 431.669,5.003 C430.323,6.642 429.062,8.275 428.023,8.103 C423.849,7.974 420.667,7.139 417.998,5.025 C416.762917,5.33124262 415.485927,5.43259102 414.218,5.325 C413.089344,5.20812695 411.948788,5.30308851 410.855,5.605 C408.918,7.295 409.209,7.151 410.115,7.005 C410.928679,6.78533437 411.797952,6.94084981 412.485,7.429 C413.336,6.084 413.729,7.681 412.685,7.853 C411.638,8.205 409.173,7.163 404.203,6.453 C402.507351,6.43243786 400.835547,6.8535766 399.352,7.675 C397.69,8.559 396.8,9.437 396.391,8.509 C395.674,8.2 396.312,7.186 396.73,7.035 C397.13,7.574 397.313,9.214 395.793,7.186 C394.273,5.122 390.957,4.734 384.287,7.208 C381.70781,6.58055568 379.019301,6.55113943 376.427,7.122 C374.482,4.792 373.048,7 372.033,8.186 C370.025,8.157 369.639,6.547 369.347,7.474 C369.071,7.201 368.93,7.674 367.473,7.905 C366.756,7.114 365.693,8.236 364.102,9.372 C363.315,10.292 362.417,9.645 361.369,8.998 C360.321,8.351 359.117,7.698 357.715,8.624 C355.855423,9.5272683 353.759179,9.82388358 351.722,9.472 C350.493448,9.27744528 349.238766,9.32397786 348.028,9.609 C345.169,13.765 342.822,10.191 340.735,10.062 C339.065478,9.54909729 337.27111,9.61963062 335.647,10.262 C333.922,10.78 332.447,11.297 331.147,10.046 C329.788861,10.2975652 328.396753,10.3050151 327.036,10.068 C326.201218,9.95093404 325.35892,9.89578354 324.516,9.903 C323.76,10.403 323.524,10.083 323.642,9.766 C323.784,9.366 324.453,8.975 325.342,10.082 C326.98,11.614 329.477,11.282 331.13,11.614 C331.624701,11.2651233 332.306712,11.3698102 332.674,11.851 C333.028,12.29 332.874,12.735 331.957,11.427 C330.319,9.752 326.184,9.601 317.876,10.14 C312.332,11.449 308.142,12.362 304.96,11.593 C303.377,9.774 302.015,10.407 300.849,11.039 C299.683,11.671 298.738,12.297 297.974,10.539 C294.8,9.065 294.06,8.82 292.831,9.065 C292.414,9.791 291.957,9.611 291.343,9.432 C290.990351,9.31492989 290.619172,9.26374445 290.248,9.281 C289.035,8.404 287.295,9.49 284.712,9.781 C282.822,6.991 281.074,10.996 279.577,11.974 C278.813,13.031 278.12,13.274 277.49,13.009 C276.836,14.145 276.269,12.309 275.75,11.003 C275.596668,11.2023315 275.329735,11.2757995 275.096,11.183 C274.796,11.111 274.513,11.039 274.23,11.909 C273.765,12.88 273.379,10.37 273.017,9.745 C272.277,8.745 271.631,11.334 271.143,11.478 C270.182,11.118 272.088,6.919 271.836,8.078 C271.726,7.366 271.136,8.732 270.536,10.099 C269.867,11.652 269.189,13.199 269.205,11.724 C269.205,11.976 269.705,10.976 270.119,9.984 C270.533,8.992 270.867,7.978 270.505,8.244 C270.229,8.244 269.552,9.689 268.749,11.144 C267.426,13.517 265.756,15.897 264.949,11.87 C263.531,13.603 257.026,13.639 254.971,15.724 C254.239,17.982 253.506,17.572 252.742,17.155 C252.431334,16.9441365 252.062337,16.8360609 251.687,16.846 C251.026,14.229 250.301,14.732 249.545,15.235 C249.033,15.573 248.513,15.904 247.993,15.293 C246.686,14.941 245.363,11.317 243.874,13.776 C243.205,13.076 242.504,13.79 241.787,14.509 C240.968,15.329 240.125,16.148 239.298,14.847 C238.398,22.009 237.652,17.817 236.841,17.055 C236.455,15.926 236.054,16.336 235.641,16.746 C235.192,17.185 234.741,17.63 234.326,16.146 C232.656,12.881 230.884,12.146 229.002,14.737 C227.529,13.169 224.482,13.205 221.268,13.237 C216.984,13.287 212.392,13.337 210.802,9.606 C210.416,12.554 202.171,13.496 200.233,10.806 C199.784,11.561 199.333,12.316 198.878,13.071 C192.743,10.95 190.978,4.262 188.01,8.217 L185.624,6.017 C180.891,7.11 171.11,8.577 167.07,6.628 C165.480346,5.92476342 163.715977,5.71571498 162.006,6.028 C160.321,6.244 158.643,6.682 156.981,6.761 C155.39,7.661 153.831,7.161 152.287,6.668 C150.61,6.122 148.956,5.575 147.31,6.862 C145.341,9.005 143.475,7.462 141.655,7.243 C139.867,5.388 138.119,5.287 136.434,7.049 C133.961,5.769 131.677,5.309 129.622,6.984 C128.606,7.077 127.614,9.594 126.74,8.71 C125.85,9.271 125.04,8.66 124.322,7.351 C121.345,9.781 119.644,9.861 119.676,7.495 C118.176,8.415 116.746,8.027 115.352,7.639 C113.974,7.265 112.643,6.884 111.336,7.747 C108.736,6.374 106.304,4.878 103.98,6.316 C101.886935,5.6876009 99.7219686,5.33002182 97.538,5.252 C96.4554897,4.76398544 95.2574227,4.59070411 94.081,4.752 C93.3769633,4.82007336 92.6669795,4.79350362 91.97,4.673 C90.1365859,4.4811641 88.2839688,4.73538433 86.57,5.414 C84.759,5.96 83.081,6.514 81.876,6.133 C80.387,3.487 76.056,3.969 72.418,4.45 C70.8271704,4.78883897 69.1933696,4.87857488 67.575,4.716 C64.4125176,3.9606856 61.1023419,4.09917219 58.014,5.116 C55.746,5.749 54.194,6.382 53.848,5.763 C52.289,5.274 50.674,4.483 49.013,4.763 C47.879,2.699 46.813,3.102 45.8,3.505 C45.4008822,3.70664856 44.9628635,3.81956458 44.516,3.836 C42.016,4.188 37.609,5.044 35.286,3.599 C33.152,4.843 23.986,5.591 23.851,5.454 L16.44,5.612 C5.631,4.676 2.725,4.266 0.347,5.611 C0.347,5.611 0.237,14.47 0.197,17.44 C0.094,25.867 0.11,24.565 0,33 L1440.00377,33 C1440.00377,33 1439.561,23.81 1439.781,14.621 C1439.812,13.305 1439.844,11.975 1439.875,10.637 C1439.906,9.271 1439.914,9.055 1439.985,6.301 C1440.064,2.821 1439.678,18.885 1439.678,18.913 C1439.778,14.469 1439.851,10.025 1439.796,5.582 C1432.681,6.272 1422.088,5.934 1415.788,8.243 Z" transform="translate(0 -1)"/>
</svg>