<svg xmlns="http://www.w3.org/2000/svg" xmlns:xlink="http://www.w3.org/1999/xlink" width="32.4" height="36.699" viewBox="0 0 32.4 36.699">
  <defs>
    <linearGradient id="linear-gradient" x1="0.5" x2="0.5" y2="1" gradientUnits="objectBoundingBox">
      <stop offset="0" stop-color="#81848d"/>
      <stop offset="1" stop-color="#acacac"/>
    </linearGradient>
  </defs>
  <path id="Path_7846" data-name="Path 7846" d="M54.9,24.772l5.263,3.044,5.277,3.038c2.944,1.7,2.824,1.509,2.824,4.912V47.929c0,3.4.11,3.207-2.842,4.905l-5.259,3.039L54.9,58.92c-2.951,1.7-2.724,1.7-5.668,0l-5.26-3.043-5.277-3.039c-2.946-1.7-2.823-1.512-2.823-4.915V35.755c0-3.4-.111-3.2,2.842-4.905l5.258-3.035,5.269-3.047c2.95-1.7,2.724-1.7,5.665,0M53.679,54.266c-1.621.942-1.608.928-3.46-.144-1.311-.755-2.619-1.51-3.934-2.264l-3.823-2.21c-1.981-1.142-1.962-.985-1.962-3.268V37.429c0-2.286-.119-2.188,1.849-3.332.485-.276.967-.555,1.447-.833.623-.359.679.086.862.576v9.7c0,1.8.01,2.066,1.209,2.73.058.027.116.064.18.1l2.82,1.531c.739.4.939,0,.939-.632V44.36c0-.7.525-.623.932-.387l2.952,1.714a1.282,1.282,0,0,1,.635,1.243v6.089C54.328,53.741,54.281,53.914,53.679,54.266Zm-3.22-24.844c1.621-.943,1.608-.929,3.458.143,1.312.755,2.62,1.509,3.936,2.264,1.276.739,2.545,1.473,3.822,2.209,1.98,1.144,1.961.988,1.961,3.269v8.952c0,2.286.119,2.188-1.849,3.331-.485.277-.967.555-1.447.833-.622.36-.678-.085-.861-.576v-9.7c0-1.8-.01-2.066-1.21-2.729-.058-.029-.116-.064-.18-.1l-2.82-1.53c-.738-.4-.939,0-.939.631v2.906c0,.7-.524.622-.933.386L50.444,38a1.28,1.28,0,0,1-.635-1.242V30.669C49.81,29.947,49.857,29.775,50.459,29.422Z" transform="translate(-35.869 -23.495)" fill-rule="evenodd" fill="url(#linear-gradient)"/>
</svg>
