<svg height="58" viewBox="0 0 167 58" width="167" xmlns="http://www.w3.org/2000/svg"><g fill="none" fill-rule="evenodd"><path d="m.5.5h166v57h-166z" stroke="#f00"/><path d="m39.392 36v-11.04h4.4c2.176 0 3.472 1.12 3.472 2.976 0 1.296-.912 2.064-1.616 2.272v.048c1.184.128 2.16 1.184 2.16 2.672 0 1.936-1.376 3.072-3.472 3.072zm1.728-6.352h2.544c1.024 0 1.904-.592 1.904-1.648s-.672-1.552-1.792-1.552h-2.656zm0 4.768h3.04c1.312 0 1.92-.656 1.92-1.68 0-1.072-.88-1.664-1.92-1.664h-3.04zm15.344-6.608v8.192h-1.648v-1.152h-.128c-.496.832-1.328 1.312-2.384 1.312-1.76 0-2.768-1.216-2.768-3.008v-5.344h1.664v5.024c0 1.2.608 1.776 1.6 1.776 1.216 0 2-.864 2-2.048v-4.752zm4.672 8.192c-1.36 0-2.048-.736-2.048-2.144v-4.864h-1.2v-1.184h1.2v-2.848h1.664v2.848h2v1.184h-2v4.48c0 .88.272 1.2 1.024 1.2h.848v1.328zm5.488 0c-1.36 0-2.048-.736-2.048-2.144v-4.864h-1.2v-1.184h1.2v-2.848h1.664v2.848h2v1.184h-2v4.48c0 .88.272 1.2 1.024 1.2h.848v1.328zm6.608.176c-2.304 0-3.984-1.488-3.984-4.24 0-2.8 1.68-4.288 3.984-4.288 2.288 0 3.984 1.488 3.984 4.288 0 2.752-1.696 4.24-3.984 4.24zm.016-1.44c1.392 0 2.336-.864 2.336-2.8 0-1.984-.944-2.848-2.336-2.848s-2.32.864-2.32 2.848c0 1.936.928 2.8 2.32 2.8zm5.776 1.264v-8.192h1.648v1.152h.08c.48-.752 1.296-1.312 2.432-1.312 1.696 0 2.768 1.168 2.768 2.992v5.36h-1.664v-5.104c0-1.28-.592-1.824-1.552-1.824-1.2 0-2.048.832-2.048 2.096v4.832zm13.072 0v-11.04h1.728v9.536h4.72v1.504zm10.832-8.352c1.872 0 3.424.832 3.424 2.608v5.744h-1.52v-.992c-.704.688-1.904 1.168-2.784 1.168-1.648 0-2.704-.896-2.704-2.32 0-1.04.56-1.728 1.504-2.192s2.32-.784 3.984-1.264c-.016-.976-.672-1.376-1.824-1.376-1.072 0-1.712.352-2.288 1.088l-1.184-.816c.784-1.04 1.792-1.648 3.392-1.648zm-.768 7.088c1.024 0 1.936-.448 2.672-1.36v-1.696c-1.088.352-2.224.704-2.864 1.008-.544.256-.864.592-.864 1.088 0 .624.448.96 1.056.96zm10.72-7.088c2.384 0 3.552 1.808 3.552 4.256 0 2.464-1.184 4.272-3.568 4.272-1.248 0-2.144-.528-2.672-1.216h-.048v1.04h-1.632v-11.04h1.664v3.92h.016c.56-.704 1.44-1.232 2.688-1.232zm-.496 7.088c1.584 0 2.368-1.008 2.368-2.848 0-1.76-.784-2.784-2.368-2.784-1.392 0-2.272 1.088-2.272 2.784 0 1.776.88 2.848 2.272 2.848zm12.608-2.976c0 .272-.016.496-.048.624h-5.632c.112 1.52.912 2.336 2.352 2.336.736 0 1.392-.224 2.016-.784l1.072.944c-.96.928-1.952 1.28-3.12 1.28-2.56 0-3.984-1.84-3.984-4.208 0-2.336 1.28-4.304 3.776-4.304 2.464 0 3.568 1.968 3.568 4.112zm-3.6-2.688c-1.168 0-1.936.72-2.08 2.032l4.032.016c-.064-1.152-.672-2.048-1.952-2.048zm5.44 6.928v-11.04h1.68v11.04z" fill="#f23b46"/></g></svg>