<svg width="1440" height="151" viewBox="0 0 1440 151" fill="#000" xmlns="http://www.w3.org/2000/svg" preserveAspectRatio="none">
<path opacity="0.18" d="M0 97.8837H1439.96L1440 67.2712C1440 67.2712 1245.81 74.8642 1058.09 42.8292C832.056 4.26251 655.629 41.2185 630.846 45.4009C570.573 55.5822 479.478 87.5499 177.446 55.1029C64.351 41.2516 0 47.3878 0 47.3878V97.8837Z"/>
<path d="M1440 150.004H0.039L0 86.6423C0 86.6423 184.667 102.389 363.176 36.0472C578.117 -43.8091 745.921 32.6886 769.451 41.3864C826.745 62.4698 913.412 128.631 1200.63 61.4617C1308.2 32.7572 1440 36.0421 1440 36.0421V150.004Z"/>
</svg>
