<?xml version="1.0" encoding="utf-8" ?>
<svg width="93" height="94" viewBox="0 0 93 94" fill="#fff" xmlns="http://www.w3.org/2000/svg">
<path d="M88.1453 50.7918L87.7013 54.2645L86.7665 54.145L87.2105 50.6723L88.1453 50.7918Z"/>
<path d="M82.9678 59.8971C83.1318 59.4338 83.3506 59.0399 83.6243 58.7155C83.8999 58.3952 84.2167 58.1637 84.5745 58.021C84.9354 57.8794 85.3186 57.8407 85.7241 57.9048L85.5857 59.13C85.1937 59.0569 84.8455 59.1235 84.5411 59.33C84.2386 59.5407 84.0141 59.8531 83.8675 60.2674C83.7447 60.6141 83.7194 60.9297 83.7913 61.2142C83.8664 61.4997 84.0635 61.699 84.3826 61.812C84.6097 61.8923 84.8214 61.8844 85.0178 61.7881C85.2172 61.693 85.3948 61.5521 85.5506 61.3655C85.7084 61.1831 85.9115 60.9166 86.16 60.566C86.4378 60.1809 86.6865 59.8735 86.9059 59.6439C87.1284 59.4153 87.3888 59.2502 87.6872 59.1486C87.9886 59.0482 88.3266 59.0642 88.7009 59.1967C89.0968 59.3368 89.3996 59.5545 89.6093 59.8497C89.821 60.1491 89.9387 60.4946 89.9624 60.8863C89.9861 61.2779 89.923 61.6855 89.7731 62.109C89.6308 62.511 89.44 62.8647 89.2006 63.1702C88.9613 63.4757 88.6744 63.7057 88.3401 63.8601C88.0046 64.0176 87.6341 64.0695 87.2284 64.0157L87.3377 62.8579C87.7003 62.9068 88.0078 62.8378 88.2604 62.651C88.515 62.4683 88.7058 62.1974 88.8329 61.8384C88.9524 61.5008 88.9762 61.1898 88.9042 60.9054C88.8311 60.624 88.6381 60.4279 88.3251 60.3171C88.1348 60.2498 87.9555 60.2588 87.7872 60.3443C87.6188 60.4297 87.4636 60.5561 87.3215 60.7233C87.1825 60.8917 87.002 61.1334 86.78 61.4484C86.4882 61.8631 86.2251 62.1965 85.9909 62.4485C85.7567 62.7006 85.4753 62.8858 85.1467 63.0044C84.8201 63.127 84.4528 63.1162 84.0446 62.9717C83.612 62.8186 83.29 62.582 83.0786 62.262C82.8673 61.9421 82.7566 61.5766 82.7467 61.1656C82.7388 60.7588 82.8125 60.336 82.9678 59.8971Z"/>
<path d="M80.0286 66.3795C80.3574 65.7988 80.7793 65.3476 81.2945 65.0257C81.8124 64.7055 82.3819 64.5454 83.0029 64.5453C83.6223 64.5481 84.2464 64.7275 84.8752 65.0835C85.5013 65.438 85.9748 65.88 86.2959 66.4097C86.6154 66.9422 86.7697 67.5121 86.7588 68.1194C86.7507 68.7283 86.5823 69.3231 86.2535 69.9038C86.0145 70.3259 85.7222 70.6804 85.3765 70.9672C85.0337 71.2556 84.655 71.462 84.2404 71.5864C83.827 71.7153 83.398 71.7529 82.9532 71.6994L83.1285 70.5473C83.5765 70.5952 83.9933 70.5132 84.3788 70.3013C84.7628 70.0923 85.0718 69.7809 85.306 69.3674C85.5241 68.9821 85.6349 68.5848 85.6386 68.1753C85.6406 67.7687 85.5278 67.3832 85.3002 67.0187C85.0755 66.6558 84.7422 66.3493 84.3003 66.0991C83.8556 65.8473 83.4184 65.7176 82.9887 65.71C82.5619 65.7041 82.1747 65.8065 81.8271 66.0175C81.4779 66.2312 81.1943 66.5308 80.9761 66.916C80.7404 67.3324 80.6302 67.7582 80.6457 68.1934C80.664 68.6302 80.8089 69.0283 81.0805 69.3878L80.1828 70.1309C79.9109 69.7787 79.7224 69.3914 79.6174 68.9691C79.5136 68.5512 79.4957 68.1203 79.5638 67.6763C79.6347 67.2339 79.7896 66.8016 80.0286 66.3795Z"/>
<path d="M78.6283 73.421L79.1627 72.7794L77.0654 71.0325L77.8154 70.1321L83.1655 74.5884L81.5186 76.5656C81.1769 76.9758 80.8233 77.2554 80.4578 77.4042C80.0927 77.5577 79.7343 77.5938 79.3825 77.5126C79.0312 77.436 78.6942 77.2633 78.3715 76.9946C78.1114 76.7779 77.9148 76.5231 77.7818 76.2301C77.6467 75.9397 77.5864 75.6331 77.6009 75.3105C77.6179 74.99 77.712 74.6787 77.8833 74.3764L74.5497 74.0527L75.4373 72.9872L78.6283 73.421ZM79.8267 73.3326L78.9205 74.4206C78.6746 74.7157 78.5686 75.0108 78.6024 75.3059C78.6363 75.601 78.7932 75.8652 79.0734 76.0985C79.251 76.2465 79.4377 76.3427 79.6336 76.3873C79.832 76.4339 80.0273 76.4207 80.2194 76.3477C80.4115 76.2748 80.5888 76.1407 80.7513 75.9456L81.6576 74.8576L79.8267 73.3326Z"/>
<path d="M71.2884 76.895C71.8027 76.4698 72.3579 76.1987 72.954 76.0818C73.5521 75.9674 74.1412 76.021 74.7214 76.2424C75.3011 76.4685 75.8201 76.8587 76.2785 77.4132C76.737 77.9676 77.0217 78.5495 77.1327 79.1589C77.2412 79.7703 77.182 80.3577 76.9552 80.9212C76.7304 81.4872 76.3609 81.9828 75.8466 82.408C75.3323 82.8332 74.7774 83.102 74.1818 83.2143C73.5857 83.3312 72.9989 83.2779 72.4212 83.0543C71.8411 82.8328 71.3218 82.4449 70.8634 81.8904C70.405 81.336 70.1205 80.7518 70.0099 80.1379C69.8989 79.5285 69.9558 78.9409 70.1805 78.3749C70.4048 77.8135 70.7742 77.3202 71.2884 76.895ZM71.9792 77.7304C71.638 78.0125 71.3939 78.3431 71.247 78.7222C71.0976 79.1034 71.0631 79.5036 71.1436 79.9228C71.2261 80.3445 71.4313 80.7536 71.759 81.1499C72.0826 81.5413 72.4427 81.8159 72.8393 81.9737C73.2379 82.1341 73.6385 82.1767 74.041 82.1015C74.441 82.0285 74.8116 81.8509 75.1528 81.5688C75.494 81.2867 75.7393 80.955 75.8887 80.5738C76.0356 80.1947 76.0678 79.7943 75.9853 79.3726C75.9048 78.9534 75.7027 78.5482 75.3792 78.1568C75.0514 77.7604 74.6882 77.482 74.2896 77.3217C73.893 77.1639 73.4947 77.1215 73.0947 77.1946C72.6922 77.2697 72.3204 77.4483 71.9792 77.7304Z"/>
<path d="M64.5817 82.7965L64.0568 81.893L67.0588 80.1493L70.5561 86.1702L69.5427 86.7588L66.5703 81.6414L64.5817 82.7965Z"/>
<path d="M60.271 84.7113L59.8568 83.752L63.044 82.3757L65.8042 88.7682L64.7284 89.2327L62.3824 83.7996L60.271 84.7113Z"/>
<path d="M57.5701 91.8005L55.223 92.2389C54.5254 92.3692 53.91 92.3367 53.3769 92.1416C52.8405 91.947 52.4045 91.6162 52.0689 91.149C51.7301 90.6825 51.4967 90.1068 51.3688 89.4221C51.2409 88.7373 51.2504 88.1146 51.3974 87.554C51.5412 86.994 51.8281 86.5265 52.258 86.1514C52.6848 85.777 53.247 85.5246 53.9446 85.3943L56.2917 84.956L57.5701 91.8005ZM54.1844 86.4125C53.4997 86.5404 53.0249 86.8443 52.7602 87.3243C52.493 87.808 52.4307 88.4323 52.5736 89.197C52.7158 89.9586 52.9986 90.5151 53.4219 90.8665C53.8425 91.2218 54.3953 91.3354 55.08 91.2075L56.2272 90.9933L55.3316 86.1983L54.1844 86.4125Z"/>
<path d="M45.8376 86.0683C46.5048 86.0811 47.1025 86.2375 47.6306 86.5375C48.1587 86.8407 48.5705 87.2654 48.8661 87.8116C49.1582 88.361 49.2974 88.9953 49.2835 89.7145C49.2696 90.4338 49.1061 91.0606 48.793 91.5951C48.4767 92.1294 48.0488 92.5363 47.5095 92.8156C46.9701 93.0983 46.3668 93.2331 45.6996 93.2202C45.0324 93.2074 44.4363 93.0493 43.9115 92.7462C43.3833 92.4462 42.9731 92.0232 42.6809 91.4771C42.3854 90.9309 42.2446 90.2982 42.2584 89.5789C42.2723 88.8597 42.4375 88.2312 42.7539 87.6936C43.067 87.1592 43.4933 86.7507 44.0327 86.4681C44.5688 86.1886 45.1704 86.0554 45.8376 86.0683ZM45.8167 87.152C45.3741 87.1435 44.9735 87.2351 44.6149 87.4267C44.253 87.6184 43.966 87.8993 43.7537 88.2697C43.5414 88.6432 43.4303 89.0871 43.4203 89.6014C43.4105 90.1091 43.5045 90.5521 43.7024 90.9303C43.9001 91.3118 44.1761 91.6053 44.5303 91.8107C44.8812 92.0161 45.2779 92.123 45.7206 92.1316C46.1632 92.1401 46.5654 92.0486 46.9273 91.857C47.2859 91.6653 47.5713 91.3826 47.7836 91.0091C47.9959 90.6387 48.1069 90.1997 48.1167 89.692C48.1267 89.1778 48.0327 88.7299 47.835 88.3484C47.6372 87.9702 47.3628 87.6784 47.0119 87.473C46.6577 87.2676 46.2593 87.1606 45.8167 87.152Z"/>
<path d="M39.5765 92.9364L38.3994 92.6317L38.3176 86.9263L35.3505 91.8427L34.3767 91.5906L34.1672 85.8522L31.323 90.8003L30.1507 90.4969L33.7388 84.2332L35.1475 84.5978L35.3994 89.6462L38.0641 85.3527L39.4728 85.7172L39.5765 92.9364Z"/>
<path d="M22.7419 86.7862L25.9462 80.6044L27.108 81.2066L27.458 87.3113L29.8781 82.6425L30.9098 83.1773L27.7055 89.359L26.5524 88.7613L26.178 82.6825L23.7737 87.321L22.7419 86.7862Z"/>
<path d="M20.3511 80.4073L17.6774 78.1471L18.2858 77.4274L20.9595 79.6876L20.3511 80.4073Z"/>
<path d="M15.5309 71.1171C15.8316 71.506 16.0441 71.9034 16.1685 72.3091C16.2884 72.7143 16.3113 73.106 16.2374 73.484C16.1609 73.8641 15.9859 74.2072 15.7123 74.5133L14.7575 73.7332C15.0313 73.4434 15.1639 73.1146 15.1552 72.7468C15.1421 72.3785 15.0011 72.0205 14.7323 71.6728C14.5073 71.3818 14.2558 71.1894 13.9777 71.0958C13.6971 71.0042 13.4228 71.0619 13.155 71.269C12.9644 71.4163 12.8564 71.5986 12.8309 71.8158C12.8028 72.0349 12.825 72.2606 12.8974 72.4926C12.9652 72.7241 13.0792 73.0392 13.2393 73.4379C13.4125 73.8801 13.5361 74.2556 13.6103 74.5645C13.6819 74.8753 13.6796 75.1836 13.6033 75.4895C13.5244 75.7973 13.3279 76.0726 13.0137 76.3155C12.6815 76.5724 12.3345 76.7089 11.9727 76.7253C11.6064 76.741 11.2522 76.6528 10.9101 76.4605C10.5681 76.2682 10.2597 75.9943 9.98496 75.6389C9.72416 75.3015 9.5302 74.9495 9.40309 74.5828C9.27599 74.2162 9.2381 73.8505 9.28943 73.4858C9.33876 73.1185 9.49594 72.7789 9.76095 72.4671L10.6749 73.1862C10.4373 73.4645 10.3287 73.7603 10.3489 74.0739C10.3645 74.3868 10.4888 74.694 10.7217 74.9953C10.9407 75.2786 11.1893 75.467 11.4674 75.5607C11.7435 75.6517 12.0129 75.5957 12.2756 75.3926C12.4352 75.2692 12.5248 75.1135 12.5442 74.9257C12.5636 74.7379 12.5415 74.539 12.4778 74.329C12.4117 74.121 12.3063 73.8383 12.1617 73.481C11.9713 73.011 11.8336 72.6094 11.7486 72.2759C11.6637 71.9425 11.6604 71.6056 11.7387 71.2652C11.8126 70.9243 12.0207 70.6214 12.3633 70.3566C12.7264 70.0759 13.0997 69.9334 13.4831 69.9291C13.8666 69.9248 14.2337 70.0298 14.5845 70.2441C14.9308 70.4578 15.2462 70.7489 15.5309 71.1171Z"/>
<path d="M11.6628 65.1117C11.9721 65.703 12.1221 66.3023 12.1128 66.9097C12.1006 67.5185 11.926 68.0837 11.589 68.6053C11.2505 69.124 10.7611 69.5508 10.1207 69.8858C9.48326 70.2192 8.85496 70.377 8.23583 70.3592C7.61519 70.3385 7.05279 70.1588 6.54864 69.82C6.04161 69.4827 5.63345 69.0185 5.32416 68.4271C5.09936 67.9974 4.96032 67.5595 4.90703 67.1134C4.85086 66.6689 4.88304 66.2388 5.00357 65.8231C5.11971 65.406 5.32096 65.0252 5.60732 64.6807L6.47976 65.4532C6.19642 65.8035 6.0391 66.198 6.0078 66.6369C5.975 67.0728 6.06874 67.5013 6.28901 67.9225C6.4942 68.3148 6.76775 68.6235 7.10966 68.8488C7.45007 69.0712 7.83509 69.1857 8.26474 69.1924C8.6915 69.2006 9.12987 69.0871 9.57985 68.8517C10.0327 68.6148 10.3789 68.318 10.6185 67.9613C10.8551 67.6061 10.9792 67.2252 10.9907 66.8188C11.0007 66.4095 10.9031 66.0087 10.6979 65.6164C10.4761 65.1924 10.1783 64.8687 9.80438 64.6455C9.42759 64.4238 9.01454 64.3294 8.56523 64.3624L8.42833 63.2052C8.87173 63.168 9.29929 63.2199 9.71101 63.3608C10.1183 63.5005 10.49 63.7193 10.8259 64.0175C11.159 64.3172 11.438 64.6819 11.6628 65.1117Z"/>
<path d="M6.51607 60.1419L6.7648 60.939L9.37037 60.1258L9.71947 61.2445L3.07271 63.3188L2.30614 60.8623C2.14711 60.3527 2.10427 59.904 2.17763 59.5163C2.24692 59.1264 2.41114 58.8057 2.67028 58.5544C2.92535 58.3008 3.25332 58.1115 3.65417 57.9864C3.97734 57.8856 4.29806 57.8588 4.61632 57.9061C4.93361 57.9503 5.22378 58.0661 5.48683 58.2534C5.74677 58.4417 5.95718 58.6897 6.11804 58.9976L8.19942 56.3736L8.61253 57.6974L6.51607 60.1419ZM5.93978 61.1964L5.51795 59.8447C5.40353 59.478 5.21322 59.2288 4.94704 59.097C4.68086 58.9653 4.37375 58.9537 4.02572 59.0623C3.80509 59.1312 3.6229 59.2358 3.47915 59.3761C3.33228 59.5174 3.23736 59.6885 3.19436 59.8895C3.15137 60.0905 3.16769 60.3122 3.24333 60.5545L3.66516 61.9063L5.93978 61.1964Z"/>
<path d="M7.59953 52.1645C7.67652 52.8274 7.60193 53.4407 7.37574 54.0044C7.14632 54.5685 6.78088 55.0337 6.27943 55.3999C5.77437 55.7634 5.16454 55.9866 4.44994 56.0696C3.73534 56.1526 3.0922 56.0749 2.52052 55.8365C1.94846 55.5949 1.48775 55.2257 1.13837 54.7288C0.78577 54.2324 0.570972 53.6527 0.493982 52.9898C0.416992 52.327 0.493394 51.7151 0.72319 51.1542C0.949377 50.5905 1.31338 50.1271 1.81521 49.7641C2.31667 49.3978 2.92469 49.1731 3.63929 49.0901C4.35389 49.0072 4.99883 49.0863 5.57412 49.3275C6.14581 49.5659 6.60795 49.9333 6.96056 50.4298C7.30955 50.9234 7.52254 51.5017 7.59953 52.1645ZM6.52279 52.2896C6.47171 51.8498 6.32708 51.4652 6.08891 51.1356C5.85035 50.8029 5.53332 50.5562 5.13781 50.3957C4.73907 50.2356 4.28425 50.1852 3.77336 50.2445C3.26894 50.3031 2.84264 50.4558 2.49445 50.7027C2.14303 50.95 1.88935 51.2629 1.73342 51.6415C1.57712 52.0169 1.5245 52.4244 1.57558 52.8642C1.62665 53.3039 1.77147 53.6902 2.01002 54.023C2.2482 54.3525 2.56666 54.5974 2.9654 54.7575C3.36091 54.918 3.81088 54.969 4.3153 54.9104C4.82619 54.8511 5.25735 54.6978 5.60877 54.4505C5.95696 54.2036 6.2092 53.8925 6.36551 53.5171C6.52144 53.1385 6.57386 52.7293 6.52279 52.2896Z"/>
<path d="M6.29252 43.222L7.33613 43.2744L7.16205 46.7417L0.207916 46.3926L0.266678 45.2222L6.1772 45.5189L6.29252 43.222Z"/>
<path d="M7.04031 38.4918L8.07029 38.6679L7.48518 42.0899L0.621891 40.9164L0.819395 39.7613L6.65271 40.7587L7.04031 38.4918Z"/>
<path d="M2.51779 32.4614L3.43146 30.2555C3.70301 29.5998 4.06604 29.1019 4.52055 28.7616C4.9763 28.4184 5.49149 28.2336 6.0661 28.2074C6.64196 28.1781 7.25169 28.2967 7.89529 28.5633C8.53888 28.8299 9.05544 29.1777 9.44498 29.6068C9.83575 30.0329 10.0709 30.5285 10.1505 31.0935C10.2313 31.6554 10.136 32.2642 9.8644 32.9199L8.95073 35.1258L2.51779 32.4614ZM8.88033 32.5651C9.14689 31.9215 9.15133 31.3579 8.89365 30.8741C8.6342 30.3862 8.14508 29.9933 7.4263 29.6956C6.71053 29.3992 6.08989 29.3324 5.5644 29.4952C5.03714 29.6538 4.64022 30.055 4.37366 30.6986L3.9271 31.7767L8.43377 33.6433L8.88033 32.5651Z"/>
<path d="M13.6979 25.7467C13.3233 26.2989 12.8663 26.7147 12.3269 26.9939C11.7847 27.2712 11.2042 27.3849 10.5852 27.3348C9.96539 27.2802 9.35779 27.051 8.76242 26.6472C8.16704 26.2433 7.73072 25.7645 7.45345 25.2106C7.178 24.6541 7.07023 24.0736 7.13013 23.4692C7.18733 22.8629 7.40322 22.2836 7.77781 21.7313C8.15239 21.1791 8.60983 20.7656 9.15012 20.4909C9.68955 20.2117 10.2678 20.0985 10.885 20.1513C11.5039 20.2014 12.1111 20.4283 12.7065 20.8322C13.3019 21.236 13.7386 21.7171 14.0167 22.2755C14.294 22.8293 14.4041 23.4094 14.3468 24.0156C14.2888 24.6174 14.0725 25.1944 13.6979 25.7467ZM12.8008 25.1382C13.0493 24.7718 13.1909 24.3861 13.2258 23.981C13.2624 23.5732 13.1834 23.1793 12.9887 22.7995C12.7913 22.4178 12.4798 22.0826 12.0542 21.7939C11.6339 21.5089 11.2113 21.3461 10.7864 21.3057C10.3588 21.2635 9.96228 21.3348 9.59695 21.5197C9.23345 21.7019 8.92745 21.9762 8.67895 22.3426C8.43045 22.7089 8.28787 23.096 8.2512 23.5038C8.21637 23.9089 8.29765 24.3023 8.49504 24.684C8.68973 25.0639 8.99721 25.3963 9.41748 25.6814C9.84313 25.9701 10.2698 26.1355 10.6974 26.1778C11.1223 26.2182 11.5165 26.1473 11.88 25.9651C12.2454 25.7802 12.5523 25.5046 12.8008 25.1382Z"/>
<path d="M11.2874 16.8023L12.1838 15.9809L17.014 19.0186L14.5057 13.8531L15.2473 13.1735L20.1747 16.1222L17.5728 11.0425L18.4656 10.2243L21.7658 16.6443L20.6931 17.6274L16.3214 15.0901L18.4719 19.6628L17.3992 20.6459L11.2874 16.8023Z"/>
<path d="M25.5859 5.98954L29.0387 12.036L27.9023 12.685L22.5851 9.66549L25.1928 14.2322L24.1837 14.8084L20.7309 8.76193L21.8588 8.11787L27.1675 11.1028L24.5768 6.56581L25.5859 5.98954Z"/>
<path d="M32.1681 7.43893L35.5179 6.42128L35.7918 7.32298L32.442 8.34063L32.1681 7.43893Z"/>
<path d="M42.6997 8.40645C42.2098 8.44622 41.7609 8.40755 41.3529 8.29044C40.948 8.16981 40.6072 7.97539 40.3307 7.70717C40.0539 7.4357 39.8619 7.10184 39.7546 6.70557L40.9293 6.33098C41.0229 6.71856 41.2261 7.00906 41.539 7.20248C41.8548 7.39239 42.2318 7.46957 42.6698 7.43401C43.0364 7.40425 43.3348 7.29838 43.565 7.1164C43.7949 6.93117 43.8962 6.66984 43.8688 6.33241C43.8493 6.09232 43.7555 5.90234 43.5874 5.76249C43.419 5.6194 43.2178 5.51489 42.9838 5.44897C42.7529 5.37954 42.4266 5.30315 42.0051 5.21979C41.54 5.12364 41.1579 5.02239 40.8586 4.91605C40.559 4.80647 40.3019 4.63628 40.0872 4.4055C39.8722 4.17147 39.7487 3.85654 39.7166 3.46071C39.6826 3.04216 39.7574 2.67684 39.9411 2.36473C40.1278 2.04911 40.395 1.80044 40.7428 1.61871C41.0905 1.43698 41.4883 1.32795 41.936 1.2916C42.3611 1.2571 42.7619 1.28661 43.1385 1.38014C43.5152 1.47367 43.8423 1.64144 44.12 1.88344C44.4009 2.12518 44.5997 2.44216 44.7165 2.83439L43.6151 3.20792C43.5115 2.85708 43.3229 2.6046 43.0491 2.45046C42.7783 2.29282 42.4531 2.2294 42.0734 2.26022C41.7166 2.28919 41.423 2.39467 41.1928 2.57665C40.9659 2.75836 40.8659 3.01469 40.8928 3.34564C40.9091 3.5468 40.9906 3.70674 41.1375 3.82546C41.2843 3.94418 41.463 4.03417 41.6738 4.09545C41.8842 4.15348 42.1786 4.2194 42.5569 4.2932C43.0546 4.38996 43.4664 4.49371 43.7922 4.60443C44.118 4.71515 44.4021 4.89621 44.6446 5.14759C44.8901 5.39547 45.0303 5.73517 45.0653 6.1667C45.1025 6.62418 45.0182 7.01476 44.8126 7.33844C44.607 7.66213 44.3187 7.91252 43.9477 8.0896C43.5797 8.26317 43.1637 8.36879 42.6997 8.40645Z"/>
<path d="M49.9596 8.43316C49.2953 8.36893 48.7115 8.16694 48.208 7.82719C47.7048 7.48419 47.3269 7.02904 47.0744 6.46174C46.8251 5.89474 46.7352 5.2516 46.8047 4.5323C46.874 3.81623 47.0853 3.20384 47.4386 2.69513C47.7952 2.18672 48.2531 1.81403 48.8124 1.57704C49.3719 1.33682 49.9838 1.24882 50.6481 1.31305C51.1308 1.35973 51.5735 1.48266 51.9762 1.68184C52.3791 1.87779 52.7217 2.13984 53.0039 2.46801C53.2897 2.79325 53.4985 3.16992 53.6305 3.59801L52.5067 3.90632C52.3683 3.4776 52.1239 3.1302 51.7735 2.86412C51.4264 2.59836 51.0163 2.4426 50.5433 2.39686C50.1026 2.35425 49.6945 2.41453 49.319 2.57772C48.9467 2.74121 48.6403 3.00101 48.3999 3.35713C48.1597 3.71 48.0152 4.13916 47.9663 4.64462C47.9171 5.15331 47.9764 5.60545 48.1442 6.00104C48.3123 6.39339 48.5634 6.70547 48.8974 6.93726C49.2347 7.16937 49.6237 7.30673 50.0644 7.34934C50.5407 7.3954 50.9745 7.32289 51.3658 7.1318C51.7574 6.93747 52.0622 6.64317 52.2802 6.24891L53.324 6.76683C53.1128 7.15847 52.8357 7.48815 52.4926 7.75584C52.153 8.02061 51.7666 8.21217 51.3332 8.33052C50.9002 8.44563 50.4423 8.47984 49.9596 8.43316Z"/>
<path d="M56.7996 6.78561L55.9954 6.56111L55.2615 9.19009L54.1328 8.87501L56.0049 2.16852L58.4834 2.86039C58.9976 3.00393 59.3975 3.21188 59.6831 3.48424C59.9727 3.75435 60.1525 4.06648 60.2227 4.42064C60.2968 4.77254 60.2774 5.15072 60.1645 5.55518C60.0735 5.88125 59.9216 6.165 59.7089 6.40641C59.4993 6.64869 59.2444 6.82932 58.9442 6.9483C58.6449 7.06414 58.3223 7.1059 57.9765 7.07357L59.0474 10.2469L57.7118 9.87409L56.7996 6.78561ZM56.2278 5.72868L57.5916 6.1094C57.9616 6.21268 58.2742 6.18842 58.5295 6.03663C58.7848 5.88484 58.9615 5.63336 59.0595 5.28221C59.1217 5.0596 59.1329 4.84982 59.0932 4.65287C59.0545 4.45278 58.9624 4.28007 58.8171 4.13474C58.6718 3.98941 58.4769 3.8826 58.2323 3.81434L56.8684 3.43361L56.2278 5.72868Z"/>
<path d="M63.1042 12.1072C62.5073 11.8089 62.0348 11.4108 61.6867 10.913C61.3401 10.4123 61.1507 9.85191 61.1186 9.23176C61.0907 8.61015 61.2376 7.97758 61.5592 7.33405C61.8808 6.69052 62.2977 6.19473 62.8101 5.84667C63.3253 5.50007 63.8865 5.3165 64.4935 5.29597C65.102 5.27253 65.7048 5.40995 66.3017 5.70824C66.8986 6.00652 67.369 6.40529 67.7126 6.90453C68.0607 7.40232 68.2494 7.96057 68.2786 8.57926C68.3108 9.19941 68.1661 9.83126 67.8445 10.4748C67.523 11.1183 67.1038 11.6148 66.5871 11.9644C66.0748 12.3124 65.5143 12.4982 64.9058 12.5216C64.3017 12.5436 63.7012 12.4054 63.1042 12.1072ZM63.5887 11.1375C63.9848 11.3354 64.3859 11.4248 64.792 11.4058C65.2011 11.3882 65.581 11.2578 65.9318 11.0146C66.284 10.7685 66.5751 10.4154 66.805 9.95533C67.032 9.50108 67.1374 9.06068 67.1213 8.63414C67.1066 8.20469 66.9835 7.82112 66.752 7.48344C66.5233 7.14722 66.211 6.88016 65.815 6.68227C65.419 6.48438 65.0164 6.39422 64.6074 6.4118C64.2012 6.43082 63.822 6.56339 63.4698 6.8095C63.119 7.0527 62.8301 7.40143 62.6031 7.85569C62.3732 8.31577 62.2656 8.76054 62.2803 9.18999C62.2964 9.61652 62.4188 9.99791 62.6474 10.3341C62.8789 10.6718 63.1927 10.9396 63.5887 11.1375Z"/>
<path d="M71.2606 15.874L70.646 16.719L67.8385 14.6768L71.9344 9.04602L72.8821 9.73538L69.4008 14.5211L71.2606 15.874Z"/>
<path d="M74.7321 19.0083L74.0233 19.7761L71.4724 17.4213L76.1952 12.305L77.0563 13.0998L73.0422 17.4483L74.7321 19.0083Z"/>
<path d="M82.3125 18.5685L83.6672 20.5347C84.0698 21.1191 84.2904 21.6945 84.3288 22.2609C84.3691 22.8301 84.2441 23.3629 83.9537 23.8594C83.6652 24.3587 83.2341 24.8059 82.6605 25.2011C82.0869 25.5964 81.5141 25.8408 80.9421 25.9344C80.3721 26.0307 79.8283 25.9587 79.3108 25.7183C78.7952 25.4806 78.3361 25.0696 77.9335 24.4852L76.5788 22.519L82.3125 18.5685ZM78.7663 23.8521C79.1615 24.4258 79.6321 24.736 80.1782 24.7827C80.7289 24.8302 81.3245 24.6333 81.9651 24.1919C82.6031 23.7523 82.9966 23.2678 83.1456 22.7382C83.2991 22.2094 83.1783 21.6582 82.7831 21.0846L82.1209 20.1236L78.1041 22.8912L78.7663 23.8521Z"/>
<path d="M81.7866 31.418C81.5243 30.8043 81.4215 30.1951 81.4781 29.5904C81.5377 28.9844 81.7558 28.4345 82.1325 27.9407C82.5134 27.4487 83.0346 27.0614 83.6961 26.7786C84.3576 26.4959 84.9963 26.3876 85.6122 26.4536C86.2293 26.5226 86.776 26.7457 87.2522 27.1227C87.7314 27.4985 88.1021 27.9932 88.3644 28.6068C88.6266 29.2204 88.7273 29.8288 88.6664 30.4318C88.6098 31.0366 88.3926 31.5843 88.0146 32.075C87.638 32.5688 87.1189 32.957 86.4574 33.2397C85.7959 33.5224 85.1551 33.6299 84.5349 33.5622C83.9191 33.4962 83.3715 33.2753 82.8923 32.8995C82.4174 32.5254 82.0488 32.0316 81.7866 31.418ZM82.7833 30.992C82.9573 31.3991 83.2053 31.7267 83.5274 31.975C83.8507 32.2262 84.2247 32.3725 84.6496 32.414C85.0774 32.4542 85.5278 32.3732 86.0007 32.1711C86.4677 31.9715 86.833 31.7039 87.0966 31.3682C87.3632 31.0312 87.5175 30.6591 87.5593 30.2518C87.6025 29.8475 87.5371 29.4418 87.3631 29.0347C87.1891 28.6276 86.9405 28.2985 86.6172 28.0472C86.2951 27.799 85.9202 27.6548 85.4924 27.6146C85.0676 27.5731 84.6217 27.6522 84.1547 27.8517C83.6818 28.0539 83.312 28.3234 83.0454 28.6604C82.7817 28.9961 82.6283 29.3661 82.5852 29.7704C82.5433 30.1777 82.6094 30.5849 82.7833 30.992Z"/>
<path d="M90.6673 34.4073L90.8676 35.6065L85.6884 38.0013L91.3865 38.7128L91.5522 39.7049L86.3948 42.2298L92.0719 42.8161L92.2714 44.0105L85.0899 43.2795L84.8502 41.8443L89.3599 39.5613L84.3538 38.8727L84.1141 37.4376L90.6673 34.4073Z"/>
</svg>
