<svg height="60" viewBox="0 0 110 60" width="110" xmlns="http://www.w3.org/2000/svg"><g fill="none" fill-rule="evenodd"><rect fill="#fff" height="60" rx="2" width="110"/><path d="m20.5 14.5h69v30h-69z" stroke="#979797"/><path d="m30.166 32.044c.008.2240011.0599995.4139992.156.57s.2219992.2799995.378.372.331999.1579998.528.198.397999.06.606.06c.1600008 0 .3279991-.0119999.504-.036s.3379993-.0679997.486-.132.2699995-.1579994.366-.282.144-.281999.144-.474c0-.2640013-.099999-.4639993-.3-.6s-.4499985-.2459996-.75-.33-.6259982-.1599997-.978-.228-.6779985-.1639994-.978-.288-.549999-.2979989-.75-.522-.3-.535998-.3-.936c0-.3120016.0699993-.5799989.21-.804s.3199989-.4059993.54-.546.4679986-.2439997.744-.312.5499986-.102.822-.102c.3520018 0 .6759985.0299997.972.09s.5579989.1639993.786.312.4099993.3479987.546.6.2159999.5659981.24.942h-1.02c-.0160001-.200001-.0679996-.3659993-.156-.498s-.1999993-.2379996-.336-.318-.2859992-.1379998-.45-.174-.3299992-.054-.498-.054c-.1520008 0-.3059992.0119999-.462.036s-.2979994.0659997-.426.126-.2319996.1399995-.312.24-.12.2299992-.12.39c0 .1760009.0619994.3219994.186.438s.281999.2119996.474.288.4079988.1399997.648.192.4799988.1059997.72.162c.2560013.0560003.5059988.1239996.75.204s.4599991.1859993.648.318.3399994.297999.456.498.174.4479985.174.744c0 .3760019-.0779992.6879988-.234.936s-.3599987.4479992-.612.6-.5359984.2579997-.852.318-.6299984.09-.942.09c-.3440017 0-.6719984-.0359996-.984-.108s-.5879988-.1899992-.828-.354-.4319993-.3799987-.576-.648-.2239999-.5939981-.24-.978zm10.512 1.956h-.96v-.984h-.024c-.2160011.3840019-.4919983.6659991-.828.846s-.7319977.27-1.188.27c-.408002 0-.7479986-.0539995-1.02-.162s-.4919992-.261999-.66-.462-.2859997-.4379986-.354-.714-.102-.5819983-.102-.918v-4.08h1.02v4.2c0 .3840019.1119989.6879989.336.912s.531998.336.924.336c.3120016 0 .5819989-.0479995.81-.144s.4179992-.2319991.57-.408.2659996-.3819988.342-.618.114-.4939986.114-.774v-3.504h1.02zm1.572-8.568h1.02v3.204h.024c.1680008-.3440017.4319982-.5939992.792-.75s.7559978-.234 1.188-.234c.4800024 0 .8979982.0879991 1.254.264s.6519988.4139985.888.714.4139994.645998.534 1.038.18.8079978.18 1.248-.0579994.855998-.174 1.248-.2919988.7339985-.528 1.026-.5319982.5219992-.888.69-.7699976.252-1.242.252c-.1520008 0-.3219991-.0159998-.51-.048s-.3739991-.0839996-.558-.156-.3579992-.1699994-.522-.294-.3019994-.2779991-.414-.462h-.024v.828h-1.02zm4.8 5.412c0-.2880014-.0379996-.5699986-.114-.846s-.1919992-.5219989-.348-.738-.3559988-.3879994-.6-.516-.5299984-.192-.858-.192c-.3440017 0-.6359988.0679993-.876.204s-.4359992.3139989-.588.534-.2619997.4699986-.33.75-.102.5639986-.102.852c0 .3040015.0359996.5979986.108.882s.1859992.5339989.342.75.3579988.3899993.606.522.5479982.198.9.198.6459988-.0679993.882-.204.4259993-.3159989.57-.54.2479997-.4799986.312-.768.096-.5839985.096-.888zm2.904 1.2c.008.2240011.0599995.4139992.156.57s.2219992.2799995.378.372.331999.1579998.528.198.397999.06.606.06c.1600008 0 .3279991-.0119999.504-.036s.3379993-.0679997.486-.132.2699995-.1579994.366-.282.144-.281999.144-.474c0-.2640013-.099999-.4639993-.3-.6s-.4499985-.2459996-.75-.33-.6259982-.1599997-.978-.228-.6779985-.1639994-.978-.288-.549999-.2979989-.75-.522-.3-.535998-.3-.936c0-.3120016.0699993-.5799989.21-.804s.3199989-.4059993.54-.546.4679986-.2439997.744-.312.5499986-.102.822-.102c.3520018 0 .6759985.0299997.972.09s.5579989.1639993.786.312.4099993.3479987.546.6.2159999.5659981.24.942h-1.02c-.0160001-.200001-.0679996-.3659993-.156-.498s-.1999993-.2379996-.336-.318-.2859992-.1379998-.45-.174-.3299992-.054-.498-.054c-.1520008 0-.3059992.0119999-.462.036s-.2979994.0659997-.426.126-.2319996.1399995-.312.24-.12.2299992-.12.39c0 .1760009.0619994.3219994.186.438s.281999.2119996.474.288.4079988.1399997.648.192.4799988.1059997.72.162c.2560013.0560003.5059988.1239996.75.204s.4599991.1859993.648.318.3399994.297999.456.498.174.4479985.174.744c0 .3760019-.0779992.6879988-.234.936s-.3599987.4479992-.612.6-.5359984.2579997-.852.318-.6299984.09-.942.09c-.3440017 0-.6719984-.0359996-.984-.108s-.5879988-.1899992-.828-.354-.4319993-.3799987-.576-.648-.2239999-.5939981-.24-.978zm9.588-2.256c-.0800004-.392002-.2479987-.6959989-.504-.912s-.5999978-.324-1.032-.324c-.3680018 0-.6759988.0679993-.924.204s-.4459993.3159989-.594.54-.2539997.4819985-.318.774-.096.5939984-.096.906c0 .2880014.0339997.5679986.102.84s.1739993.5139989.318.726.3319988.3819994.564.51.5079984.192.828.192c.5040025 0 .8979986-.1319987 1.182-.396s.4579997-.6359976.522-1.116h1.044c-.1120006.7680038-.3979977 1.3599979-.858 1.776s-1.085996.624-1.878.624c-.4720024 0-.8899982-.0759992-1.254-.228s-.6679988-.3679986-.912-.648-.4279994-.6139981-.552-1.002-.186-.8139977-.186-1.278.0599994-.897998.18-1.302.3019988-.7559985.546-1.056.5499982-.5359991.918-.708.7959976-.258 1.284-.258c.3520018 0 .6819985.0419996.99.126s.5799988.2139991.816.39.4299992.3979987.582.666.2479998.5859982.288.954zm2.196-1.992h.96v1.308h.024c.2480012-.5040025.5519982-.8759988.912-1.116s.8159972-.3520001 1.368-.336v1.08c-.408002 0-.7559986.0559994-1.044.168s-.5199991.2759989-.696.492-.3039996.4779985-.384.786-.12.661998-.12 1.062v2.76h-1.02zm5.112-1.116h-1.02v-1.248h1.02zm-1.02 1.116h1.02v6.204h-1.02zm2.64-2.364h1.02v3.204h.024c.1680008-.3440017.4319982-.5939992.792-.75s.7559978-.234 1.188-.234c.4800024 0 .8979982.0879991 1.254.264s.6519988.4139985.888.714.4139994.645998.534 1.038.18.8079978.18 1.248-.0579994.855998-.174 1.248-.2919988.7339985-.528 1.026-.5319982.5219992-.888.69-.7699976.252-1.242.252c-.1520008 0-.3219991-.0159998-.51-.048s-.3739991-.0839996-.558-.156-.3579992-.1699994-.522-.294-.3019994-.2779991-.414-.462h-.024v.828h-1.02zm4.8 5.412c0-.2880014-.0379996-.5699986-.114-.846s-.1919992-.5219989-.348-.738-.3559988-.3879994-.6-.516-.5299984-.192-.858-.192c-.3440017 0-.6359988.0679993-.876.204s-.4359992.3139989-.588.534-.2619997.4699986-.33.75-.102.5639986-.102.852c0 .3040015.0359996.5979986.108.882s.1859992.5339989.342.75.3579988.3899993.606.522.5479982.198.9.198.6459988-.0679993.882-.204.4259993-.3159989.57-.54.2479997-.4799986.312-.768.096-.5839985.096-.888zm6.588-.54c-.0160001-.2400012-.0699995-.4679989-.162-.684s-.2159992-.4019992-.372-.558-.3399989-.2799995-.552-.372-.4459987-.138-.702-.138c-.2640013 0-.5019989.0459995-.714.138s-.3939992.2179992-.546.378-.2719996.3459989-.36.558-.1399999.4379988-.156.678zm.984 1.728c-.1360007.6960035-.4359977 1.2199982-.9 1.572s-1.0479965.528-1.752.528c-.4960025 0-.9259982-.0799992-1.29-.24s-.6699988-.3839986-.918-.672-.4339994-.631998-.558-1.032-.1939999-.8359976-.21-1.308c0-.4720024.0719993-.903998.216-1.296s.3459987-.7319986.606-1.02.5679982-.5119992.924-.672.7459979-.24 1.17-.24c.5520028 0 1.0099982.1139989 1.374.342s.6559989.5179982.876.87.3719996.7359979.456 1.152.1180001.8119981.102 1.188h-4.644c-.008.2720014.0239996.5299988.096.774s.1879992.4599991.348.648.3639988.3379994.612.45.5399983.168.876.168c.4320022 0 .7859986-.099999 1.062-.3s.4579996-.503998.546-.912z" fill="#000" fill-rule="nonzero"/></g></svg>