<svg height="60" viewBox="0 0 110 60" width="110" xmlns="http://www.w3.org/2000/svg"><g fill="none" fill-rule="evenodd"><rect fill="#fff" height="60" rx="2" width="110"/><g fill="#000"><path d="m23.124 28.304c-.0160001-.2400012-.0699995-.4679989-.162-.684s-.2159992-.4019992-.372-.558-.3399989-.2799995-.552-.372-.4459987-.138-.702-.138c-.2640013 0-.5019989.0459995-.714.138s-.3939992.2179992-.546.378-.2719996.3459989-.36.558-.1399999.4379988-.156.678zm.984 1.728c-.1360007.6960035-.4359977 1.2199982-.9 1.572s-1.0479965.528-1.752.528c-.4960025 0-.9259982-.0799992-1.29-.24s-.6699988-.3839986-.918-.672-.4339994-.631998-.558-1.032-.1939999-.8359976-.21-1.308c0-.4720024.0719993-.903998.216-1.296s.3459987-.7319986.606-1.02.5679982-.5119992.924-.672.7459979-.24 1.17-.24c.5520028 0 1.0099982.1139989 1.374.342s.6559989.5179982.876.87.3719996.7359979.456 1.152.1180001.8119981.102 1.188h-4.644c-.008.2720014.0239996.5299988.096.774s.1879992.4599991.348.648.3639988.3379994.612.45.5399983.168.876.168c.4320022 0 .7859986-.099999 1.062-.3s.4579996-.503998.546-.912zm1.152-4.236h.96v.912h.024c.4640023-.7040035 1.1319956-1.056 2.004-1.056.3840019 0 .7319984.0799992 1.044.24s.5319994.4319981.66.816c.208001-.3360017.4819983-.5959991.822-.78s.713998-.276 1.122-.276c.3120016 0 .5939987.0339997.846.102s.4679991.1739993.648.318.3199995.3299989.42.558.15.5019984.15.822v4.548h-1.02v-4.068c0-.192001-.0159998-.3719992-.048-.54s-.0919996-.3139994-.18-.438-.2099992-.2219996-.366-.294-.3579988-.108-.606-.108c-.5040025 0-.8999986.1439986-1.188.432s-.432.6719976-.432 1.152v3.864h-1.02v-4.068c0-.200001-.0179998-.3839992-.054-.552s-.0979996-.3139994-.186-.438-.2059993-.2199997-.354-.288-.3379988-.102-.57-.102c-.2960015 0-.5499989.0599994-.762.18s-.3839993.2639992-.516.432-.2279997.3419991-.288.522-.09.3299994-.09.45v3.864h-1.02zm15.732 6.18c-.1760009.1040005-.4199984.156-.732.156-.2640013 0-.4739992-.0739993-.63-.222s-.234-.3899983-.234-.726c-.2800014.3360017-.6059981.5779993-.978.726s-.7739978.222-1.206.222c-.2800014 0-.5459987-.0319997-.798-.096s-.4699991-.1639993-.654-.3-.3299995-.3139989-.438-.534-.162-.4859984-.162-.798c0-.3520018.0599994-.6399989.18-.864s.277999-.4059993.474-.546.4199987-.2459996.672-.318.5099987-.1319998.774-.18c.2800014-.0560003.5459987-.0979999.798-.126s.473999-.0679997.666-.12.3439994-.1279995.456-.228.168-.245999.168-.438c0-.2240011-.0419996-.4039993-.126-.54s-.1919993-.2399996-.324-.312-.2799992-.1199999-.444-.144-.3259992-.036-.486-.036c-.4320022 0-.7919986.0819992-1.08.246s-.4439999.4739977-.468.93h-1.02c.0160001-.3840019.0959993-.7079987.24-.972s.3359988-.4779992.576-.642.5139985-.2819996.822-.354.6379982-.108.99-.108c.2800014 0 .5579986.0199998.834.06s.5259989.1219994.75.246.4039993.2979989.54.522.204.5159982.204.876v3.192c0 .2400012.0139999.4159994.042.528s.1219992.168.282.168c.0880004 0 .1919994-.0199998.312-.06zm-1.656-3.18c-.1280006.0960005-.295999.1659998-.504.21s-.4259989.0799999-.654.108-.4579988.0599998-.69.096-.4399991.0939996-.624.174-.3339994.1939993-.45.342-.174.3499987-.174.606c0 .1680008.0339997.3099994.102.426s.1559995.2099996.264.282.2339993.1239998.378.156.2959992.048.456.048c.3360017 0 .6239988-.0459995.864-.138s.4359992-.2079993.588-.348.2639996-.2919992.336-.456.108-.3179993.108-.462zm3.684-4.116h-1.02v-1.248h1.02zm-1.02 1.116h1.02v6.204h-1.02zm2.664-2.364h1.02v8.568h-1.02zm11.436 8.544c-.1760009.1040005-.4199984.156-.732.156-.2640013 0-.4739992-.0739993-.63-.222s-.234-.3899983-.234-.726c-.2800014.3360017-.6059981.5779993-.978.726s-.7739978.222-1.206.222c-.2800014 0-.5459987-.0319997-.798-.096s-.4699991-.1639993-.654-.3-.3299995-.3139989-.438-.534-.162-.4859984-.162-.798c0-.3520018.0599994-.6399989.18-.864s.277999-.4059993.474-.546.4199987-.2459996.672-.318.5099987-.1319998.774-.18c.2800014-.0560003.5459987-.0979999.798-.126s.473999-.0679997.666-.12.3439994-.1279995.456-.228.168-.245999.168-.438c0-.2240011-.0419996-.4039993-.126-.54s-.1919993-.2399996-.324-.312-.2799992-.1199999-.444-.144-.3259992-.036-.486-.036c-.4320022 0-.7919986.0819992-1.08.246s-.4439999.4739977-.468.93h-1.02c.0160001-.3840019.0959993-.7079987.24-.972s.3359988-.4779992.576-.642.5139985-.2819996.822-.354.6379982-.108.99-.108c.2800014 0 .5579986.0199998.834.06s.5259989.1219994.75.246.4039993.2979989.54.522.204.5159982.204.876v3.192c0 .2400012.0139999.4159994.042.528s.1219992.168.282.168c.0880004 0 .1919994-.0199998.312-.06zm-1.656-3.18c-.1280006.0960005-.295999.1659998-.504.21s-.4259989.0799999-.654.108-.4579988.0599998-.69.096-.4399991.0939996-.624.174-.3339994.1939993-.45.342-.174.3499987-.174.606c0 .1680008.0339997.3099994.102.426s.1559995.2099996.264.282.2339993.1239998.378.156.2959992.048.456.048c.3360017 0 .6239988-.0459995.864-.138s.4359992-.2079993.588-.348.2639996-.2919992.336-.456.108-.3179993.108-.462zm3.348.156c0 .2880014.0379996.5699986.114.846s.1919992.5219989.348.738.3559988.3879994.6.516.5299984.192.858.192c.3440017 0 .6359988-.0679993.876-.204s.4359992-.3139989.588-.534.2619997-.4699986.33-.75.102-.5639986.102-.852c0-.3040015-.0359996-.5979986-.108-.882s-.1859992-.5339989-.342-.75-.3579988-.3899993-.606-.522-.5479982-.198-.9-.198c-.3440017 0-.6359988.0679993-.876.204s-.4319993.3159989-.576.54-.2479997.4799986-.312.768-.096.5839985-.096.888zm4.8 3.048h-1.02v-.84h-.024c-.1680008.3440017-.4319982.5919992-.792.744s-.7559978.228-1.188.228c-.4800024 0-.8979982-.0879991-1.254-.264s-.6519988-.4119985-.888-.708-.4139994-.639998-.534-1.032-.18-.8079978-.18-1.248.0579994-.855998.174-1.248.2919988-.7339985.528-1.026.5319982-.5239991.888-.696.7699976-.258 1.242-.258c.1600008 0 .3319991.0159998.516.048s.3679991.0859996.552.162.3579992.1759994.522.3.3019994.2779991.414.462h.024v-3.192h1.02zm2.316-3.048c0 .2880014.0379996.5699986.114.846s.1919992.5219989.348.738.3559988.3879994.6.516.5299984.192.858.192c.3440017 0 .6359988-.0679993.876-.204s.4359992-.3139989.588-.534.2619997-.4699986.33-.75.102-.5639986.102-.852c0-.3040015-.0359996-.5979986-.108-.882s-.1859992-.5339989-.342-.75-.3579988-.3899993-.606-.522-.5479982-.198-.9-.198c-.3440017 0-.6359988.0679993-.876.204s-.4319993.3159989-.576.54-.2479997.4799986-.312.768-.096.5839985-.096.888zm4.8 3.048h-1.02v-.84h-.024c-.1680008.3440017-.4319982.5919992-.792.744s-.7559978.228-1.188.228c-.4800024 0-.8979982-.0879991-1.254-.264s-.6519988-.4119985-.888-.708-.4139994-.639998-.534-1.032-.18-.8079978-.18-1.248.0579994-.855998.174-1.248.2919988-.7339985.528-1.026.5319982-.5239991.888-.696.7699976-.258 1.242-.258c.1600008 0 .3319991.0159998.516.048s.3679991.0859996.552.162.3579992.1759994.522.3.3019994.2779991.414.462h.024v-3.192h1.02zm1.536-6.204h.96v1.308h.024c.2480012-.5040025.5519982-.8759988.912-1.116s.8159972-.3520001 1.368-.336v1.08c-.408002 0-.7559986.0559994-1.044.168s-.5199991.2759989-.696.492-.3039996.4779985-.384.786-.12.661998-.12 1.062v2.76h-1.02zm8.34 2.508c-.0160001-.2400012-.0699995-.4679989-.162-.684s-.2159992-.4019992-.372-.558-.3399989-.2799995-.552-.372-.4459987-.138-.702-.138c-.2640013 0-.5019989.0459995-.714.138s-.3939992.2179992-.546.378-.2719996.3459989-.36.558-.1399999.4379988-.156.678zm.984 1.728c-.1360007.6960035-.4359977 1.2199982-.9 1.572s-1.0479965.528-1.752.528c-.4960025 0-.9259982-.0799992-1.29-.24s-.6699988-.3839986-.918-.672-.4339994-.631998-.558-1.032-.1939999-.8359976-.21-1.308c0-.4720024.0719993-.903998.216-1.296s.3459987-.7319986.606-1.02.5679982-.5119992.924-.672.7459979-.24 1.17-.24c.5520028 0 1.0099982.1139989 1.374.342s.6559989.5179982.876.87.3719996.7359979.456 1.152.1180001.8119981.102 1.188h-4.644c-.008.2720014.0239996.5299988.096.774s.1879992.4599991.348.648.3639988.3379994.612.45.5399983.168.876.168c.4320022 0 .7859986-.099999 1.062-.3s.4579996-.503998.546-.912zm1.776.012c.008.2240011.0599995.4139992.156.57s.2219992.2799995.378.372.331999.1579998.528.198.397999.06.606.06c.1600008 0 .3279991-.0119999.504-.036s.3379993-.0679997.486-.132.2699995-.1579994.366-.282.144-.281999.144-.474c0-.2640013-.099999-.4639993-.3-.6s-.4499985-.2459996-.75-.33-.6259982-.1599997-.978-.228-.6779985-.1639994-.978-.288-.549999-.2979989-.75-.522-.3-.535998-.3-.936c0-.3120016.0699993-.5799989.21-.804s.3199989-.4059993.54-.546.4679986-.2439997.744-.312.5499986-.102.822-.102c.3520018 0 .6759985.0299997.972.09s.5579989.1639993.786.312.4099993.3479987.546.6.2159999.5659981.24.942h-1.02c-.0160001-.200001-.0679996-.3659993-.156-.498s-.1999993-.2379996-.336-.318-.2859992-.1379998-.45-.174-.3299992-.054-.498-.054c-.1520008 0-.3059992.0119999-.462.036s-.2979994.0659997-.426.126-.2319996.1399995-.312.24-.12.2299992-.12.39c0 .1760009.0619994.3219994.186.438s.281999.2119996.474.288.4079988.1399997.648.192.4799988.1059997.72.162c.2560013.0560003.5059988.1239996.75.204s.4599991.1859993.648.318.3399994.297999.456.498.174.4479985.174.744c0 .3760019-.0779992.6879988-.234.936s-.3599987.4479992-.612.6-.5359984.2579997-.852.318-.6299984.09-.942.09c-.3440017 0-.6719984-.0359996-.984-.108s-.5879988-.1899992-.828-.354-.4319993-.3799987-.576-.648-.2239999-.5939981-.24-.978zm6 0c.008.2240011.0599995.4139992.156.57s.2219992.2799995.378.372.331999.1579998.528.198.397999.06.606.06c.1600008 0 .3279991-.0119999.504-.036s.3379993-.0679997.486-.132.2699995-.1579994.366-.282.144-.281999.144-.474c0-.2640013-.099999-.4639993-.3-.6s-.4499985-.2459996-.75-.33-.6259982-.1599997-.978-.228-.6779985-.1639994-.978-.288-.549999-.2979989-.75-.522-.3-.535998-.3-.936c0-.3120016.0699993-.5799989.21-.804s.3199989-.4059993.54-.546.4679986-.2439997.744-.312.5499986-.102.822-.102c.3520018 0 .6759985.0299997.972.09s.5579989.1639993.786.312.4099993.3479987.546.6.2159999.5659981.24.942h-1.02c-.0160001-.200001-.0679996-.3659993-.156-.498s-.1999993-.2379996-.336-.318-.2859992-.1379998-.45-.174-.3299992-.054-.498-.054c-.1520008 0-.3059992.0119999-.462.036s-.2979994.0659997-.426.126-.2319996.1399995-.312.24-.12.2299992-.12.39c0 .1760009.0619994.3219994.186.438s.281999.2119996.474.288.4079988.1399997.648.192.4799988.1059997.72.162c.2560013.0560003.5059988.1239996.75.204s.4599991.1859993.648.318.3399994.297999.456.498.174.4479985.174.744c0 .3760019-.0779992.6879988-.234.936s-.3599987.4479992-.612.6-.5359984.2579997-.852.318-.6299984.09-.942.09c-.3440017 0-.6719984-.0359996-.984-.108s-.5879988-.1899992-.828-.354-.4319993-.3799987-.576-.648-.2239999-.5939981-.24-.978z" fill-rule="nonzero"/><path d="m18 39h75v1h-75z"/></g></g></svg>