<svg xmlns="http://www.w3.org/2000/svg" xmlns:xlink="http://www.w3.org/1999/xlink" width="200" height="100" viewBox="0 0 200 100"><defs><clipPath id="b"><rect width="200" height="100"/></clipPath></defs><g id="a" clip-path="url(#b)"><rect width="200" height="100" fill="#fff"/><g transform="translate(-15 18)"><rect width="50" height="50" transform="translate(34 7)" fill="#a1a3af"/><rect width="51" height="50" transform="translate(90 7)" fill="#a1a3af"/><rect width="50" height="50" transform="translate(147 7)" fill="#a1a3af"/></g><g transform="translate(11 40)" fill="#fff" stroke="#707070" stroke-width="1"><circle cx="10.5" cy="10.5" r="10.5" stroke="none"/><circle cx="10.5" cy="10.5" r="10" fill="none"/></g><g transform="translate(170 40)" fill="#fff" stroke="#707070" stroke-width="1"><circle cx="10.5" cy="10.5" r="10.5" stroke="none"/><circle cx="10.5" cy="10.5" r="10" fill="none"/></g><path d="M6.66-4.16v.82H1.6L3.926-1,3.34-.41,0-3.75,3.34-7.09l.586.586L1.6-4.16Z" transform="translate(18 54)" fill="#707070"/><path d="M6.66-3.84v-.82H1.6L3.926-7,3.34-7.59,0-4.25,3.34-.91,3.926-1.5,1.6-3.84Z" transform="translate(184 46) rotate(180)" fill="#707070"/></g></svg>