<svg height="100" viewBox="0 0 200 100" width="200" xmlns="http://www.w3.org/2000/svg" xmlns:xlink="http://www.w3.org/1999/xlink"><clipPath id="a"><path d="m0 0h200v100h-200z"/></clipPath><g clip-path="url(#a)"><path d="m0 0h200v100h-200z" fill="#fff"/><g fill="#a1a3af"><path d="m0 0h39v39h-39z" transform="translate(37)"/><path d="m0 0h39v39h-39z" transform="translate(81)"/><path d="m0 0h39v39h-39z" transform="translate(125)"/><path d="m0 0h39v39h-39z" transform="translate(37 44)"/><path d="m0 0h39v39h-39z" transform="translate(81 44)"/><path d="m0 0h39v39h-39z" transform="translate(125 44)"/><path d="m0 0h39v39h-39z" transform="translate(37 87)"/><path d="m0 0h39v39h-39z" transform="translate(81 87)"/><path d="m0 0h39v39h-39z" transform="translate(125 87)"/><path d="m0 0h39v39h-39z" transform="translate(37 131)"/><path d="m0 0h39v39h-39z" transform="translate(81 131)"/><path d="m0 0h39v39h-39z" transform="translate(125 131)"/></g></g></svg>