<svg height="100" viewBox="0 0 200 100" width="200" xmlns="http://www.w3.org/2000/svg" xmlns:xlink="http://www.w3.org/1999/xlink"><clipPath id="a"><path d="m0 0h200v100h-200z"/></clipPath><g clip-path="url(#a)"><path d="m0 0h200v100h-200z" fill="#fff"/><g fill="#a1a3af"><path d="m0 0h39v56h-39z" transform="translate(37 -24)"/><path d="m0 0h39v15h-39z" transform="translate(81 -2)"/><path d="m0 0h39v51h-39z" transform="translate(81 17)"/><path d="m0 0h39v57h-39z" transform="translate(125 -19)"/><path d="m0 0h39v20h-39z" transform="translate(37 38)"/><path d="m0 0h39v67h-39z" transform="translate(37 64)"/><path d="m0 0h39v57h-39z" transform="translate(81 74)"/><path d="m0 0h39v69h-39z" transform="translate(125 45)"/></g></g></svg>