<svg xmlns="http://www.w3.org/2000/svg" width="23.584" height="16.28" viewBox="0 0 23.584 16.28"><path d="M6.4.33A4.675,4.675,0,0,1,2.233-1.881,10.733,10.733,0,0,1,.792-7.81a10.733,10.733,0,0,1,1.441-5.929A4.675,4.675,0,0,1,6.4-15.95a4.681,4.681,0,0,1,4.158,2.211A10.669,10.669,0,0,1,12.012-7.81,10.669,10.669,0,0,1,10.56-1.881,4.681,4.681,0,0,1,6.4.33ZM9.284-7.81q0-5.61-2.882-5.61T3.52-7.81Q3.52-2.2,6.4-2.2T9.284-7.81ZM24.376-2.222V0H14.828V-2.222H18.26V-12.98H14.916v-1.76l3.872-.88h2.156v13.4Z" transform="translate(-0.792 15.95)" opacity="0.162"></path></svg>