<svg xmlns="http://www.w3.org/2000/svg" width="23.826" height="16.28" viewBox="0 0 23.826 16.28"><path d="M6.4.33A4.675,4.675,0,0,1,2.233-1.881,10.733,10.733,0,0,1,.792-7.81a10.733,10.733,0,0,1,1.441-5.929A4.675,4.675,0,0,1,6.4-15.95a4.681,4.681,0,0,1,4.158,2.211A10.669,10.669,0,0,1,12.012-7.81,10.669,10.669,0,0,1,10.56-1.881,4.681,4.681,0,0,1,6.4.33ZM9.284-7.81q0-5.61-2.882-5.61T3.52-7.81Q3.52-2.2,6.4-2.2T9.284-7.81Zm8.4.946V-9.13H19.1a3.049,3.049,0,0,0,2.035-.594,1.933,1.933,0,0,0,.693-1.54,2.157,2.157,0,0,0-.66-1.639,2.642,2.642,0,0,0-1.892-.627,2.376,2.376,0,0,0-1.87.715,2.688,2.688,0,0,0-.682,1.727H14.1a4.8,4.8,0,0,1,1.474-3.465,5.1,5.1,0,0,1,3.718-1.4,5.386,5.386,0,0,1,3.751,1.243,4.22,4.22,0,0,1,1.375,3.289,3.3,3.3,0,0,1-2.266,3.344,3.442,3.442,0,0,1,2.464,3.542,4.539,4.539,0,0,1-1.5,3.476A5.533,5.533,0,0,1,19.206.33a5.47,5.47,0,0,1-3.85-1.353,5.026,5.026,0,0,1-1.584-3.619h2.64a2.839,2.839,0,0,0,.8,1.859,2.691,2.691,0,0,0,1.991.715,2.886,2.886,0,0,0,2-.671,2.29,2.29,0,0,0,.748-1.793,2.129,2.129,0,0,0-.726-1.716,3.183,3.183,0,0,0-2.112-.616Z" transform="translate(-0.792 15.95)" opacity="0.162"></path></svg>