<svg xmlns="http://www.w3.org/2000/svg" width="92.265" height="29.8" viewBox="0 0 92.265 29.8"><path d="M3.66,0H5.64L7.725-6.6,9.81,0h1.98l3.7-10.5h-2.55l-2.19,6.975L8.67-10.5H6.78L4.695-3.525,2.5-10.5H-.045ZM17.745.15A1.476,1.476,0,0,0,19.23-1.32a1.466,1.466,0,0,0-1.485-1.47A1.466,1.466,0,0,0,16.26-1.32,1.476,1.476,0,0,0,17.745.15ZM22.26,0h3.96a5.082,5.082,0,0,0,5.355-5.25A5.09,5.09,0,0,0,26.22-10.5H22.26Zm2.43-2.04V-8.46h1.3A2.982,2.982,0,0,1,29.07-5.25a2.982,2.982,0,0,1-3.075,3.21ZM39.655-5H51.118v1.6H39.655ZM7.155,19H9.72L6.15,8.5H3.7L.15,19H2.715l.36-1.275H6.8Zm-3.54-3.18,1.32-4.665,1.32,4.665ZM20.28,12.3a3.648,3.648,0,0,0-3.765-3.8h-4.47V19h2.43V16.09H15.75L17.4,19h2.76l-1.845-3.33A3.656,3.656,0,0,0,20.28,12.3Zm-5.8-1.815H16.14A1.694,1.694,0,0,1,17.82,12.3a1.694,1.694,0,0,1-1.68,1.815H14.475ZM28.05,19.3c3.075,0,5.07-1.635,5.355-4.11h-2.58a2.564,2.564,0,0,1-2.76,1.935c-1.98,0-3.12-1.32-3.12-3.375s1.14-3.375,3.12-3.375a2.564,2.564,0,0,1,2.76,1.935H33.4C33.12,9.835,31.125,8.2,28.05,8.2a5.307,5.307,0,0,0-5.64,5.55A5.307,5.307,0,0,0,28.05,19.3Zm7.935-.3h2.43V14.83h3.63V19h2.43V8.5h-2.43v4.245h-3.63V8.5h-2.43ZM47.67,19H50.1V8.5H47.67Zm7.56,0h2.415V10.66h2.9V8.5H52.35v2.16h2.88Zm7.56,0h6.42V17.05H65.22V14.74h3.99v-1.9H65.22V10.45h3.99V8.5H62.79Zm14.52.3c3.075,0,5.07-1.635,5.355-4.11h-2.58a2.564,2.564,0,0,1-2.76,1.935c-1.98,0-3.12-1.32-3.12-3.375s1.14-3.375,3.12-3.375a2.564,2.564,0,0,1,2.76,1.935h2.58C82.38,9.835,80.385,8.2,77.31,8.2a5.307,5.307,0,0,0-5.64,5.55A5.307,5.307,0,0,0,77.31,19.3Zm9.6-.3h2.415V10.66H92.22V8.5H84.03v2.16h2.88Z" transform="translate(0.045 10.5)" fill="#fff"></path></svg>